<?xml version="1.0" encoding="utf-8"?>
<!-- Generator: Adobe Illustrator 17.0.0, SVG Export Plug-In . SVG Version: 6.00 Build 0)  -->
<!DOCTYPE svg PUBLIC "-//W3C//DTD SVG 1.1//EN" "http://www.w3.org/Graphics/SVG/1.1/DTD/svg11.dtd">
<svg version="1.1" id="Ebene_1" xmlns="http://www.w3.org/2000/svg" xmlns:xlink="http://www.w3.org/1999/xlink" x="0px" y="0px"
	 width="1133.86px" height="1133.86px" viewBox="0 0 1133.86 1133.86" enable-background="new 0 0 1133.86 1133.86"
	 xml:space="preserve">
<rect x="0" y="0" display="none" fill="#666666" width="1134" height="1134"/>
<g id="original" display="none">
	<path display="inline" fill="#FFFFFF" d="M779,533.142c0,113.044-95.085,204.685-212.5,204.685l0,0
		c-117.415,0-212.5-91.641-212.5-204.685V204.685C354,91.641,449.085,0,566.5,0l0,0C683.915,0,779,91.641,779,204.685V533.142z"/>
	<path display="inline" fill="#FFFFFF" d="M870,556.962C870,723.694,735.032,858,568.244,858h-3.335
		C398.121,858,264,723.694,264,556.962v-88.399c0-23.95-19.542-43.366-43.5-43.366S177,444.612,177,468.563v87.217
		c0,200.722,151.025,365.491,346,386.867V1047H347.017c-23.758,0-43.017,19.259-43.017,43.017v0.967
		c0,23.757,19.259,43.017,43.017,43.017h438.967c23.758,0,43.017-19.259,43.017-43.017v-0.967c0-23.757-19.259-43.017-43.017-43.017
		H611V942.556c194.672-21.753,346-186.341,346-386.777v-87.217c0-23.95-19.542-43.366-43.5-43.366S870,444.612,870,468.563V556.962z
		"/>
	<g id="_x2F_">
		
			<line display="inline" stroke="#000000" stroke-width="80" stroke-miterlimit="10" x1="1073.561" y1="116.868" x2="116.867" y2="1073.559"/>
		
			<line display="inline" stroke="#000000" stroke-width="80" stroke-miterlimit="10" x1="60.299" y1="1016.991" x2="1016.992" y2="60.299"/>
	</g>
</g>
<g id="final">
	<path fill="#FFFFFF" d="M343.43,790.428l701.846-701.845l-56.568-56.568L779,241.723v-37.038C779,91.641,683.915,0,566.5,0
		S354,91.641,354,204.685v328.457c0,38.008,10.767,73.583,29.501,104.079l-76.049,76.049C279.869,667.757,264,614.282,264,556.962
		v-88.399c0-23.95-19.542-43.366-43.5-43.366S177,444.612,177,468.563v87.217c0,81.729,25.051,157.487,67.904,220.037
		L32.015,988.706l56.568,56.568l208.258-208.257l0,0L343.43,790.428z"/>
	<path fill="#FFFFFF" d="M913.5,425.196c-23.958,0-43.5,19.416-43.5,43.367v88.399C870,723.694,735.032,858,568.244,858h-3.335
		c-51.056,0-99.039-12.603-141.063-34.851l-63.327,63.327c48.11,29.938,103.261,49.679,162.481,56.171V1047H347.017
		c-23.758,0-43.017,19.259-43.017,43.017v0.967c0,23.757,19.259,43.017,43.017,43.017h438.967c23.758,0,43.017-19.259,43.017-43.017
		v-0.967c0-23.757-19.259-43.017-43.017-43.017H611V942.556c194.672-21.753,346-186.341,346-386.777v-87.217
		C957,444.612,937.458,425.196,913.5,425.196z"/>
	<path fill="#FFFFFF" d="M779,533.142v-65.146L515.187,731.809c16.433,3.923,33.617,6.018,51.313,6.018
		C683.915,737.827,779,646.186,779,533.142z"/>
</g>
</svg>
