<?xml version="1.0" encoding="utf-8"?>
<!-- Generator: Adobe Illustrator 17.0.0, SVG Export Plug-In . SVG Version: 6.00 Build 0)  -->
<!DOCTYPE svg PUBLIC "-//W3C//DTD SVG 1.1//EN" "http://www.w3.org/Graphics/SVG/1.1/DTD/svg11.dtd">
<svg version="1.1" id="Ebene_1" xmlns="http://www.w3.org/2000/svg" xmlns:xlink="http://www.w3.org/1999/xlink" x="0px" y="0px"
	 width="1133.86px" height="1133.86px" viewBox="0 0 1133.86 1133.86" enable-background="new 0 0 1133.86 1133.86"
	 xml:space="preserve">
<rect display="none" fill="#666666" width="1134" height="1134"/>
<path fill="#FFFFFF" d="M779,533.142c0,113.044-95.085,204.685-212.5,204.685l0,0c-117.415,0-212.5-91.641-212.5-204.685V204.685
	C354,91.641,449.085,0,566.5,0l0,0C683.915,0,779,91.641,779,204.685V533.142z"/>
<path fill="#FFFFFF" d="M870,556.962C870,723.694,735.032,858,568.244,858h-3.335C398.121,858,264,723.694,264,556.962v-88.399
	c0-23.95-19.542-43.366-43.5-43.366S177,444.612,177,468.563v87.217c0,200.722,151.025,365.491,346,386.867V1047H347.017
	c-23.758,0-43.017,19.259-43.017,43.017v0.967c0,23.757,19.259,43.017,43.017,43.017h438.967c23.758,0,43.017-19.259,43.017-43.017
	v-0.967c0-23.757-19.259-43.017-43.017-43.017H611V942.556c194.672-21.753,346-186.341,346-386.777v-87.217
	c0-23.95-19.542-43.366-43.5-43.366S870,444.612,870,468.563V556.962z"/>
</svg>
