<?xml version="1.0" encoding="utf-8"?>
<!-- Generator: Adobe Illustrator 17.0.0, SVG Export Plug-In . SVG Version: 6.00 Build 0)  -->
<!DOCTYPE svg PUBLIC "-//W3C//DTD SVG 1.1//EN" "http://www.w3.org/Graphics/SVG/1.1/DTD/svg11.dtd">
<svg version="1.1" id="Ebene_1" xmlns="http://www.w3.org/2000/svg" xmlns:xlink="http://www.w3.org/1999/xlink" x="0px" y="0px"
	 width="1133.86px" height="1133.86px" viewBox="0 0 1133.86 1133.86" enable-background="new 0 0 1133.86 1133.86"
	 xml:space="preserve">
<g display="none">
	<g display="inline">
		<path fill="#40FF8F" d="M526.709,421.327c25.53,42.558,40.22,92.362,40.22,145.602c0,53.24-14.69,103.044-40.22,145.602
			l167.721,61.045c38.86-59.392,61.475-130.374,61.475-206.648S733.29,419.672,694.43,360.28L526.709,421.327z"/>
	</g>
	<g display="inline">
		<path fill="#40FF8F" d="M861.845,299.347c52.372,76.07,83.037,168.244,83.037,267.582s-30.665,191.511-83.037,267.582
			l167.23,60.867c65.978-92.668,104.783-206.026,104.783-328.448s-38.805-235.78-104.783-328.448L861.845,299.347z"/>
	</g>
	<circle display="inline" fill="#40FF8F" cx="188.976" cy="567.033" r="188.976"/>
</g>
<g>
	<g>
		<path fill="#40FF8F" d="M609.048,191.26c22.068,36.787,34.766,79.836,34.766,125.856s-12.698,89.069-34.766,125.856
			l144.976,52.766c33.59-51.337,53.138-112.693,53.138-178.624c0-65.929-19.548-127.285-53.138-178.624L609.048,191.26z"/>
	</g>
	<g>
		<path fill="#40FF8F" d="M898.734,85.822c45.269,65.754,71.776,145.427,71.776,231.293s-26.506,165.54-71.776,231.293
			l144.551,52.612c57.031-80.101,90.573-178.086,90.573-283.905s-33.542-203.804-90.573-283.905L898.734,85.822z"/>
	</g>
	<g>
		<g>
			<path fill="#40FF8F" d="M33.21,1043.285c80.101,57.031,178.086,90.573,283.905,90.573s203.804-33.542,283.905-90.573
				l-158.05-434.238c-36.787,22.068-79.836,34.766-125.856,34.766s-89.069-12.698-125.856-34.766L33.21,1043.285z"/>
		</g>
	</g>
	<circle fill="#40FF8F" cx="317.116" cy="317.115" r="163.348"/>
	<g display="none">
		<g display="inline">
			<g>
				<path fill="#40FF8F" d="M0,1133.858l191.26-524.811c36.787,22.068,79.836,34.766,125.856,34.766s89.069-12.698,125.856-34.766
					l191.259,524.807L0,1133.858z"/>
			</g>
		</g>
	</g>
</g>
</svg>
