<?xml version="1.0" encoding="utf-8"?>
<!-- Generator: Adobe Illustrator 17.0.0, SVG Export Plug-In . SVG Version: 6.00 Build 0)  -->
<!DOCTYPE svg PUBLIC "-//W3C//DTD SVG 1.1//EN" "http://www.w3.org/Graphics/SVG/1.1/DTD/svg11.dtd">
<svg version="1.1" id="Ebene_1" xmlns="http://www.w3.org/2000/svg" xmlns:xlink="http://www.w3.org/1999/xlink" x="0px" y="0px"
	 width="1133.86px" height="1133.86px" viewBox="0 0 1133.86 1133.86" enable-background="new 0 0 1133.86 1133.86"
	 xml:space="preserve">
<g>
	<g>
		<path fill="#FFFFFF" d="M655.905,100v372.441v58.585l51.104,28.646l235.565,132.042c27.214,15.862,50.043,38.577,66.044,65.722
			c16.513,28.013,25.241,60.157,25.241,92.957c0,49.005-19.084,95.077-53.736,129.729c-34.652,34.652-80.724,53.736-129.729,53.736
			H283.465c-49.005,0-95.077-19.084-129.729-53.736C119.084,945.471,100,899.399,100,850.394c0-32.8,8.728-64.943,25.24-92.956
			c16.001-27.145,38.83-49.86,66.043-65.722l235.565-132.044l51.103-28.646v-58.585V100H655.905 M793.7,0H340.156v94.488h37.795
			v377.953l-236.22,132.412C57.004,653.865,0,745.472,0,850.394c0,156.553,126.912,283.465,283.465,283.465h566.929
			c156.553,0,283.465-126.912,283.465-283.465c0-104.923-57.005-196.531-141.734-245.543l-236.22-132.41V94.488H793.7V0L793.7,0z"/>
	</g>
</g>
<rect x="141.733" y="538.818" display="none" fill="#FFFFFF" stroke="#1D1D1B" stroke-miterlimit="10" width="106.299" height="240.709"/>
<rect x="885.828" y="505.052" display="none" fill="#FFFFFF" stroke="#1D1D1B" stroke-miterlimit="10" width="106.299" height="274.476"/>
<polygon fill="#FFFFFF" points="1013.386,1079.583 120.472,1079.583 67.615,843.077 120.472,720.415 1013.386,720.415 
	1072.565,840.077 "/>
</svg>
