<?xml version="1.0" encoding="utf-8"?>
<!-- Generator: Adobe Illustrator 17.0.0, SVG Export Plug-In . SVG Version: 6.00 Build 0)  -->
<!DOCTYPE svg PUBLIC "-//W3C//DTD SVG 1.1//EN" "http://www.w3.org/Graphics/SVG/1.1/DTD/svg11.dtd">
<svg version="1.1" id="Ebene_1" xmlns="http://www.w3.org/2000/svg" xmlns:xlink="http://www.w3.org/1999/xlink" x="0px" y="0px"
	 width="79.37px" height="79.37px" viewBox="0 0 79.37 79.37" enable-background="new 0 0 79.37 79.37" xml:space="preserve">
<g>
	<path fill="#DADADA" d="M0,0v79.37h79.37V0H0z M73.701,73.701H5.669V5.669h68.031V73.701z"/>
	<rect x="34.016" y="11.339" display="none" fill="#DADADA" width="17.008" height="56.693"/>
	<rect x="11.339" y="11.339" display="none" fill="#DADADA" width="17.008" height="56.693"/>
	<rect x="56.693" y="11.339" display="none" fill="#DADADA" width="11.339" height="56.693"/>
</g>
<path fill="#DADADA" d="M11.339,11.339v56.693h56.693V11.339H11.339z M39.685,62.362l-5.669-5.669l5.669-5.669l5.669,5.669
	L39.685,62.362z M56.693,39.685l-5.669,5.669H34.016l5.669-5.669h11.339V22.677H28.346v5.669h-5.669v-5.669l5.669-5.669h22.677
	l5.669,5.669V39.685z"/>
</svg>
