<?xml version="1.0" encoding="utf-8"?>
<!-- Generator: Adobe Illustrator 17.0.0, SVG Export Plug-In . SVG Version: 6.00 Build 0)  -->
<!DOCTYPE svg PUBLIC "-//W3C//DTD SVG 1.1//EN" "http://www.w3.org/Graphics/SVG/1.1/DTD/svg11.dtd">
<svg version="1.1" id="Ebene_1" xmlns="http://www.w3.org/2000/svg" xmlns:xlink="http://www.w3.org/1999/xlink" x="0px" y="0px"
	 width="1133.86px" height="1133.86px" viewBox="0 0 1133.86 1133.86" enable-background="new 0 0 1133.86 1133.86"
	 xml:space="preserve">
<path fill="#40FF8F" d="M981.9,378.747L748.7,611.946l-201,201c-25.364,25.364-66.486,25.364-91.85,0
	c-0.156-0.156-0.298-0.319-0.452-0.476c-0.157-0.154-0.32-0.297-0.476-0.452L231.329,588.424c-25.364-25.364-25.364-66.486,0-91.85
	c25.364-25.364,66.486-25.364,91.85,0l178.597,178.597l201-201L890.05,286.897l98.72-98.72C884.984,72.661,734.445,0,566.929,0
	C253.823,0,0,253.823,0,566.929s253.823,566.929,566.929,566.929s566.929-253.823,566.929-566.929
	c0-98.236-24.99-190.633-68.953-271.189L981.9,378.747z"/>
</svg>
