<?xml version="1.0" encoding="utf-8"?>
<!-- Generator: Adobe Illustrator 17.0.0, SVG Export Plug-In . SVG Version: 6.00 Build 0)  -->
<!DOCTYPE svg PUBLIC "-//W3C//DTD SVG 1.1//EN" "http://www.w3.org/Graphics/SVG/1.1/DTD/svg11.dtd">
<svg version="1.1" id="Ebene_1" xmlns="http://www.w3.org/2000/svg" xmlns:xlink="http://www.w3.org/1999/xlink" x="0px" y="0px"
	 width="1133.86px" height="1133.86px" viewBox="0 0 1133.86 1133.86" enable-background="new 0 0 1133.86 1133.86"
	 xml:space="preserve">
<g>
	<path fill="#EDEDED" d="M526.709,421.327c25.53,42.558,40.22,92.362,40.22,145.602c0,53.24-14.69,103.044-40.22,145.602
		l167.721,61.045c38.86-59.392,61.475-130.374,61.475-206.648s-22.615-147.256-61.475-206.648L526.709,421.327z"/>
</g>
<g>
	<path fill="#EDEDED" d="M861.845,299.347c52.372,76.07,83.037,168.244,83.037,267.582s-30.665,191.511-83.037,267.582
		l167.23,60.867c65.978-92.668,104.783-206.026,104.783-328.448s-38.805-235.78-104.783-328.448L861.845,299.347z"/>
</g>
<circle fill="#EDEDED" cx="188.976" cy="566.929" r="188.976"/>
</svg>
