<?xml version="1.0" encoding="utf-8"?>
<!-- Generator: Adobe Illustrator 17.0.0, SVG Export Plug-In . SVG Version: 6.00 Build 0)  -->
<!DOCTYPE svg PUBLIC "-//W3C//DTD SVG 1.1//EN" "http://www.w3.org/Graphics/SVG/1.1/DTD/svg11.dtd">
<svg version="1.1" id="Ebene_1" xmlns="http://www.w3.org/2000/svg" xmlns:xlink="http://www.w3.org/1999/xlink" x="0px" y="0px"
	 width="1133.86px" height="1133.86px" viewBox="0 0 1133.86 1133.86" enable-background="new 0 0 1133.86 1133.86"
	 xml:space="preserve">
<g display="none">
	<g display="inline">
		<path fill="#40FF8F" d="M526.709,421.327c25.53,42.558,40.22,92.362,40.22,145.602c0,53.24-14.69,103.044-40.22,145.602
			l167.721,61.045c38.86-59.392,61.475-130.374,61.475-206.648s-22.615-147.256-61.475-206.648L526.709,421.327z"/>
	</g>
	<g display="inline">
		<path fill="#40FF8F" d="M861.845,299.347c52.372,76.07,83.037,168.244,83.037,267.582s-30.665,191.511-83.037,267.582
			l167.23,60.867c65.978-92.668,104.783-206.026,104.783-328.448s-38.805-235.78-104.783-328.448L861.845,299.347z"/>
	</g>
	<circle display="inline" fill="#40FF8F" cx="188.976" cy="567.033" r="188.976"/>
</g>
<g>
	<g>
		<path fill="#40FF8F" d="M769.569,479.568c15.318,25.535,24.132,55.417,24.132,87.361c0,31.944-8.814,61.826-24.132,87.361
			l100.633,36.627c23.316-35.635,36.885-78.224,36.885-123.989c0-45.764-13.569-88.353-36.885-123.989L769.569,479.568z"/>
	</g>
	<g>
		<path fill="#40FF8F" d="M970.651,406.38c31.423,45.642,49.822,100.946,49.822,160.549s-18.399,114.907-49.822,160.549
			l100.338,36.52c39.587-55.601,62.87-123.616,62.87-197.069s-23.283-141.468-62.87-197.069L970.651,406.38z"/>
	</g>
	<g>
		<path fill="#40FF8F" d="M364.289,654.29c-15.318-25.535-24.132-55.417-24.132-87.361c0-31.944,8.814-61.826,24.132-87.361
			L263.657,442.94c-23.316,35.635-36.885,78.224-36.885,123.989c0,45.764,13.569,88.353,36.885,123.989L364.289,654.29z"/>
	</g>
	<g>
		<path fill="#40FF8F" d="M163.208,727.478c-31.423-45.642-49.822-100.946-49.822-160.549s18.399-114.907,49.822-160.549
			L62.87,369.86C23.283,425.461,0,493.476,0,566.929s23.283,141.468,62.87,197.069L163.208,727.478z"/>
	</g>
	<circle fill="#40FF8F" cx="566.929" cy="566.929" r="113.386"/>
</g>
</svg>
