<?xml version="1.0" encoding="utf-8"?>
<!-- Generator: Adobe Illustrator 17.0.0, SVG Export Plug-In . SVG Version: 6.00 Build 0)  -->
<!DOCTYPE svg PUBLIC "-//W3C//DTD SVG 1.1//EN" "http://www.w3.org/Graphics/SVG/1.1/DTD/svg11.dtd">
<svg version="1.1" id="Ebene_1" xmlns="http://www.w3.org/2000/svg" xmlns:xlink="http://www.w3.org/1999/xlink" x="0px" y="0px"
	 width="500px" height="500px" viewBox="0 0 500 500" enable-background="new 0 0 500 500" xml:space="preserve">
<path fill="#FFFFFF" d="M177.317,104.632c0,40.158,32.525,72.685,72.683,72.685s72.685-32.527,72.685-72.685
	S290.159,31.949,250,31.949C209.842,31.949,177.317,64.474,177.317,104.632z M177.317,259.086v163.538h-22.715
	c-12.536,0-22.713,10.175-22.713,22.716c0,12.536,10.177,22.711,22.713,22.711h190.794c12.537,0,22.717-10.175,22.717-22.711
	c0-12.541-10.18-22.716-22.717-22.716h-22.711V233.648c0-11.083-8.91-19.991-19.991-19.991H154.602
	c-12.536,0-22.713,10.177-22.713,22.713c0,12.538,10.177,22.715,22.713,22.715h22.715V259.086z"/>
</svg>
