<?xml version="1.0" encoding="utf-8"?>
<!-- Generator: Adobe Illustrator 17.0.0, SVG Export Plug-In . SVG Version: 6.00 Build 0)  -->
<!DOCTYPE svg PUBLIC "-//W3C//DTD SVG 1.1//EN" "http://www.w3.org/Graphics/SVG/1.1/DTD/svg11.dtd">
<svg version="1.1" id="Ebene_1" xmlns="http://www.w3.org/2000/svg" xmlns:xlink="http://www.w3.org/1999/xlink" x="0px" y="0px"
	 width="512px" height="512px" viewBox="0 0 512 512" enable-background="new 0 0 512 512" xml:space="preserve">
<rect x="213.677" y="-26.672" transform="matrix(-0.7071 0.7071 -0.7071 -0.7071 615.9171 255.1272)" fill="#40BFFF" width="82.886" height="563.592"/>
<g>
	<path fill="#40BFFF" d="M290.349,172.935L208.153,90.74l-3.089,3.089l211.344,211.344l50.055-50.055
		c58.366-58.366,58.366-152.991,0-211.344c-58.365-58.353-152.991-58.366-211.344,0l82.195,82.195
		c12.976,12.976,12.976,34.002,0,46.965C324.338,185.911,303.312,185.911,290.349,172.935z"/>
	<path fill="#40BFFF" d="M93.824,205.068l-3.097,3.097l82.196,82.195c12.975,12.976,12.975,34.002,0,46.965
		c-12.964,12.963-33.99,12.963-46.953-0.013l-82.195-82.195c-58.366,58.366-58.366,152.991,0,211.344
		c58.366,58.354,152.991,58.366,211.344,0l50.05-50.05L93.824,205.068z"/>
</g>
</svg>
