<?xml version="1.0" encoding="utf-8"?>
<!-- Generator: Adobe Illustrator 18.1.1, SVG Export Plug-In . SVG Version: 6.00 Build 0)  -->
<svg version="1.1" id="Ebene_2" xmlns="http://www.w3.org/2000/svg" xmlns:xlink="http://www.w3.org/1999/xlink" x="0px" y="0px"
	 viewBox="0 0 1133.9 1133.9" enable-background="new 0 0 1133.9 1133.9" xml:space="preserve">
<g display="none">
	<path display="inline" fill="#FE9B3E" d="M255.1,493.2h-102v102C153.1,538.9,198.8,493.2,255.1,493.2z"/>
	<path display="inline" fill="#FE9B3E" d="M153.1,595.3v102h102C198.8,697.3,153.1,651.6,153.1,595.3z"/>
	<path display="inline" fill="#FE9B3E" d="M255.1,697.3h102v-102C357.2,651.6,311.5,697.3,255.1,697.3z"/>
	<path display="inline" fill="#FE9B3E" d="M255.1,493.2c56.4,0,102,45.7,102,102v-102H255.1z"/>
</g>
<path fill="#2C323E" d="M817.1,378l-204.8,0l0-275.9c0-56.4-45.7-102-102-102h-102c-56.4,0-102,45.7-102,102l0,275.9l-204.9,0
	C45.3,378.4,0,423.9,0,480v653.9h918.4V480C918.4,423.9,873.1,378.4,817.1,378z M204.1,1031.8H102V806.9h102V1031.8z M102,704.9
	l0-174c0-26.8,20.6-48.7,46.8-50.8h259.3V153.1l0,0c0-28.2,22.8-51,51-51l0,0h0l0,0c28.2,0,51,22.8,51,51l0,0V480h259.3
	c26.2,2.1,46.8,24.1,46.8,50.8l0,174H102z"/>
</svg>
