<?xml version="1.0" encoding="utf-8"?>
<!-- Generator: Adobe Illustrator 18.0.0, SVG Export Plug-In . SVG Version: 6.00 Build 0)  -->
<svg version="1.1" id="ui" xmlns="http://www.w3.org/2000/svg" xmlns:xlink="http://www.w3.org/1999/xlink" x="0px" y="0px"
	 viewBox="0 0 1133.9 1133.9" enable-background="new 0 0 1133.9 1133.9" xml:space="preserve">
<path id="brush" fill="#8392A9" d="M817.1,378H612.3V102.1c0-56.4-45.7-102-102-102h-102c-56.4,0-102,45.7-102,102V378H101.4
	C45.3,378.4,0,423.9,0,480v653.9h918.4V480C918.4,423.9,873.1,378.4,817.1,378z M204.1,1031.8H102V806.9h102v224.9H204.1z
	 M102,704.9v-174c0-26.8,20.6-48.7,46.8-50.8h259.3v-327l0,0c0-28.2,22.8-51,51-51l0,0l0,0l0,0c28.2,0,51,22.8,51,51l0,0V480h259.3
	c26.2,2.1,46.8,24.1,46.8,50.8v174L102,704.9L102,704.9z"/>
</svg>
