<?xml version="1.0" encoding="utf-8"?>
<!-- Generator: Adobe Illustrator 18.0.0, SVG Export Plug-In . SVG Version: 6.00 Build 0)  -->
<svg version="1.1" id="Ebene_1" xmlns="http://www.w3.org/2000/svg" xmlns:xlink="http://www.w3.org/1999/xlink" x="0px" y="0px"
	 viewBox="0 0 1133.9 1133.9" enable-background="new 0 0 1133.9 1133.9" xml:space="preserve">
<g id="original">
	<path fill="#8392A9" d="M779,533.1c0,113-95.1,204.7-212.5,204.7l0,0c-117.4,0-212.5-91.6-212.5-204.7V204.7
		C354,91.6,449.1,0,566.5,0l0,0C683.9,0,779,91.6,779,204.7V533.1z"/>
	<path fill="#8392A9" d="M870,557c0,166.7-135,301-301.8,301h-3.3C398.1,858,264,723.7,264,557v-88.4c0-24-19.5-43.4-43.5-43.4
		S177,444.6,177,468.6v87.2c0,200.7,151,365.5,346,386.9V1047H347c-23.8,0-43,19.3-43,43v1c0,23.8,19.3,43,43,43h439
		c23.8,0,43-19.3,43-43v-1c0-23.8-19.3-43-43-43H611V942.6c194.7-21.8,346-186.3,346-386.8v-87.2c0-24-19.5-43.4-43.5-43.4
		S870,444.6,870,468.6V557z"/>
	<g id="_x2F_" display="none">
		
			<line display="inline" fill="none" stroke="#000000" stroke-width="80" stroke-miterlimit="10" x1="1073.6" y1="116.9" x2="116.9" y2="1073.6"/>
		
			<line display="inline" fill="none" stroke="#000000" stroke-width="80" stroke-miterlimit="10" x1="60.3" y1="1017" x2="1017" y2="60.3"/>
	</g>
</g>
<g id="final" display="none">
	<path display="inline" fill="#808080" d="M343.4,790.4l701.8-701.8L988.7,32L779,241.7v-37C779,91.6,683.9,0,566.5,0
		S354,91.6,354,204.7v328.5c0,38,10.8,73.6,29.5,104.1l-76,76c-27.6-45.5-43.5-99-43.5-156.3v-88.4c0-24-19.5-43.4-43.5-43.4
		S177,444.6,177,468.6v87.2c0,81.7,25.1,157.5,67.9,220L32,988.7l56.6,56.6L296.8,837l0,0L343.4,790.4z"/>
	<path display="inline" fill="#808080" d="M913.5,425.2c-24,0-43.5,19.4-43.5,43.4V557c0,166.7-135,301-301.8,301h-3.3
		c-51.1,0-99-12.6-141.1-34.9l-63.3,63.3c48.1,29.9,103.3,49.7,162.5,56.2V1047H347c-23.8,0-43,19.3-43,43v1c0,23.8,19.3,43,43,43
		h439c23.8,0,43-19.3,43-43v-1c0-23.8-19.3-43-43-43H611V942.6c194.7-21.8,346-186.3,346-386.8v-87.2
		C957,444.6,937.5,425.2,913.5,425.2z"/>
	<path display="inline" fill="#808080" d="M779,533.1V468L515.2,731.8c16.4,3.9,33.6,6,51.3,6C683.9,737.8,779,646.2,779,533.1z"/>
</g>
</svg>
