<?xml version="1.0" encoding="utf-8"?>
<!-- Generator: Adobe Illustrator 18.0.0, SVG Export Plug-In . SVG Version: 6.00 Build 0)  -->
<svg version="1.1" id="plugin" xmlns="http://www.w3.org/2000/svg" xmlns:xlink="http://www.w3.org/1999/xlink" x="0px" y="0px"
	 viewBox="0 0 1133.9 1133.9" enable-background="new 0 0 1133.9 1133.9" xml:space="preserve">
<path id="block" fill="#8392A9" d="M992.1,280.6V144.6c0-25-20.3-45.4-45.4-45.4H754c-25,0-45.4,20.3-45.4,45.4v136.1
	c0,25-20.3,45.4-45.4,45.4H470.6c-25,0-45.4-20.3-45.4-45.4V144.6c0-25-20.3-45.4-45.4-45.4H187.1c-25,0-45.4,20.3-45.4,45.4v136.1
	c0,25-20.3,45.4-45.4,45.4h-51C20.3,326,0,346.3,0,371.3v618c0,25,20.3,45.4,45.4,45.4h1043.1c25,0,45.4-20.3,45.4-45.4v-618
	c0-25-20.3-45.4-45.4-45.4h-51C1012.4,326,992.1,305.7,992.1,280.6z"/>
</svg>
