<?xml version="1.0" encoding="utf-8"?>
<!-- Generator: Adobe Illustrator 18.0.0, SVG Export Plug-In . SVG Version: 6.00 Build 0)  -->
<svg version="1.1" xmlns="http://www.w3.org/2000/svg" xmlns:xlink="http://www.w3.org/1999/xlink" x="0px" y="0px"
	 viewBox="0 0 1200 1200" enable-background="new 0 0 1200 1200" xml:space="preserve">
<g id="grid" display="none">
	<g id="tilt_x5F_down" display="inline">
	</g>
	<g id="tilt_x5F_up" display="inline">
	</g>
	<g id="vertical" display="inline">
	</g>
	<g id="horizontal" display="inline">
	</g>
</g>
<g id="Ebene_6">
	<path d="M1050,1150H150c-55,0-100-45-100-100V150C50,95,95,50,150,50h900c55,0,100,45,100,100v900C1150,1105,1105,1150,1050,1150z"
		/>
	<path fill="#FFFFFF" d="M500,700C500,700,500,700,500,700l0-400c0,0,0,0,0,0h200v400H500z M700,200H500c-55.2,0-100,44.8-100,100
		v400c0,55.2,44.8,100,100,100h200c55.2,0,100-44.8,100-100V300C800,244.8,755.2,200,700,200L700,200z"/>
	<g>
		<path fill="#FFFFFF" d="M650,850H550v50h-50c-55.2,0-100,44.8-100,100h400c0-27.6-11.2-52.6-29.3-70.7
			C752.6,911.2,727.6,900,700,900h-50V850L650,850z"/>
	</g>
</g>
<g id="stroke" display="none">
	
		<rect x="592.2" y="159.1" transform="matrix(0.7071 0.7071 -0.7071 0.7071 618.75 -256.2946)" display="inline" width="53" height="919.2"/>
	
		<rect x="509.5" y="102.9" transform="matrix(0.7071 0.7071 -0.7071 0.7071 562.5 -232.9951)" display="inline" fill="#FFFFFF" width="106.1" height="919.2"/>
</g>
</svg>
