<?xml version="1.0" encoding="utf-8"?>
<!-- Generator: Adobe Illustrator 18.0.0, SVG Export Plug-In . SVG Version: 6.00 Build 0)  -->
<svg version="1.1" xmlns="http://www.w3.org/2000/svg" xmlns:xlink="http://www.w3.org/1999/xlink" x="0px" y="0px"
	 viewBox="0 0 800 800" enable-background="new 0 0 800 800" xml:space="preserve">
<g id="microphone" display="none">
	<path id="_x32_" display="inline" fill="#8392A9" d="M613.7,392.9c0,117.6-95.2,212.4-212.9,212.4h-2.3
		c-117.7,0-212.3-94.8-212.3-212.4v-61.7c0-17.8-14.7-32.3-32.5-31.3c-16.1,0.9-28.9,14.3-28.9,30.5v61.5
		c0,141.5,106.5,257.8,244,273c0.1,0,0.1,0.1,0.1,0.1v73.4c0,0.1-0.1,0.1-0.1,0.1h-124c-16.8,0-30.3,13.6-30.3,30.3v0.7
		c0,16.8,13.6,30.3,30.3,30.3h309.7c16.8,0,30.3-13.6,30.3-30.3v-0.7c0-16.8-13.6-30.3-30.3-30.3H431.1c-0.1,0-0.1-0.1-0.1-0.1V665
		c0-0.1,0.1-0.1,0.1-0.1c137.3-15.5,244-131.4,244-272.9v-60.8c0-17.8-14.7-32.3-32.5-31.3c-16.1,0.9-28.9,14.3-28.9,30.5
		L613.7,392.9L613.7,392.9L613.7,392.9z"/>
	<g id="_x31__1_" display="inline">
		<path fill="#8392A9" d="M399.6,63.2c47.8,0,86.7,36.4,86.7,81.2v253.3c0,44.8-38.9,81.2-86.7,81.2s-86.7-36.4-86.7-81.2V144.4
			C312.9,99.6,351.8,63.2,399.6,63.2 M399.6-0.1c-82.8,0-149.9,64.7-149.9,144.4v253.3c0,79.8,67.1,144.4,149.9,144.4
			s149.9-64.7,149.9-144.4V144.4C549.5,64.6,482.4-0.1,399.6-0.1L399.6-0.1z"/>
	</g>
	<rect x="371.5" y="542" display="inline" fill="none" width="63.3" height="63.3"/>
</g>
<g id="Ebene_2">
	<g>
		<path fill="#4A4F65" d="M537.9,137.9v275.9c0,76.2-61.8,137.9-137.9,137.9S262.1,490,262.1,413.8V137.9C262.1,61.8,323.8,0,400,0
			S537.9,61.8,537.9,137.9z"/>
	</g>
	<path fill="#4A4F65" d="M427.6,660.6v84.3h55.2c15.2,0,27.6,12.3,27.6,27.6c0,15.2-12.3,27.6-27.6,27.6H317.2
		c-15.2,0-27.6-12.3-27.6-27.6c0-15.2,12.3-27.6,27.6-27.6h55.2v-84.3c-124.1-13.7-220.7-119-220.7-246.8
		c0-15.2,12.3-27.6,27.6-27.6s27.6,12.3,27.6,27.6c0,106.6,86.5,193.1,193.1,193.1s193.1-86.5,193.1-193.1
		c0-15.2,12.3-27.6,27.6-27.6c15.2,0,27.6,12.3,27.6,27.6C648.3,541.6,551.7,646.8,427.6,660.6z"/>
</g>
</svg>
