<?xml version="1.0" encoding="utf-8"?>
<!-- Generator: Adobe Illustrator 18.0.0, SVG Export Plug-In . SVG Version: 6.00 Build 0)  -->
<svg version="1.1" id="microphone-muted" xmlns="http://www.w3.org/2000/svg" xmlns:xlink="http://www.w3.org/1999/xlink" x="0px"
	 y="0px" viewBox="0 0 800 800" enable-background="new 0 0 800 800" xml:space="preserve">
<g id="grid" display="none">
	<g id="tilt_x5F_down" display="inline">
	</g>
	<g id="tilt_x5F_up" display="inline">
	</g>
	<g id="vertical" display="inline">
	</g>
	<g id="horizontal" display="inline">
	</g>
</g>
<g id="Ebene_6">
	<path id="background" d="M700,766.7H100c-36.7,0-66.7-30-66.7-66.7V100c0-36.7,30-66.7,66.7-66.7h600c36.7,0,66.7,30,66.7,66.7v600
		C766.7,736.7,736.7,766.7,700,766.7z"/>
	<path fill="#FFFFFF" d="M333.3,466.7L333.3,466.7V200l0,0h133.3v266.7H333.3z M466.7,133.3H333.3c-36.8,0-66.7,29.9-66.7,66.7
		v266.7c0,36.8,29.9,66.7,66.7,66.7h133.3c36.8,0,66.7-29.9,66.7-66.7V200C533.3,163.2,503.5,133.3,466.7,133.3L466.7,133.3z"/>
	<path fill="#FFFFFF" d="M433.3,566.7h-66.7V600h-33.3c-36.8,0-66.7,29.9-66.7,66.7h266.7c0-18.4-7.5-35.1-19.5-47.1
		c-12.1-12.1-28.7-19.5-47.1-19.5h-33.3V566.7L433.3,566.7z"/>
</g>
<g id="stroke">
	<rect x="394.8" y="106.1" transform="matrix(-0.7071 -0.7071 0.7071 -0.7071 412.5373 995.7732)" width="35.3" height="612.8"/>
	
		<rect x="339.7" y="68.6" transform="matrix(-0.7071 -0.7071 0.7071 -0.7071 375.0271 905.3783)" fill="#FFFFFF" width="70.7" height="612.8"/>
</g>
</svg>
