<?xml version="1.0" encoding="utf-8"?>
<!-- Generator: Adobe Illustrator 17.0.0, SVG Export Plug-In . SVG Version: 6.00 Build 0)  -->
<!DOCTYPE svg PUBLIC "-//W3C//DTD SVG 1.1//EN" "http://www.w3.org/Graphics/SVG/1.1/DTD/svg11.dtd">
<svg version="1.1" id="Ebene_1" xmlns="http://www.w3.org/2000/svg" xmlns:xlink="http://www.w3.org/1999/xlink" x="0px" y="0px"
	 width="62px" height="62px" viewBox="0 0 62 62" enable-background="new 0 0 62 62" xml:space="preserve">
<g id="info">
	<path fill="#FFFFFF" d="M24.347,59.082c-4.554-7.046,5.932-27.626,0-33.558c-1.187-1.187-5.303,0.911-6.712,0
		c-1.057-0.683-0.89-4.144,0-5.034c3.56-3.56,17.403-4.227,20.136,0c4.327,6.694-5.636,26.246,0,31.881
		c1.187,1.187,5.303-0.911,6.712,0s1.187,5.525,0,6.712C40.923,62.643,27.08,63.309,24.347,59.082z"/>
	<path fill="#FFFFFF" d="M31.059,0.354c2.373-0.013,6.88,4.345,6.712,6.712s-4.346,6.893-6.712,6.712
		c-2.366-0.181-6.712-4.339-6.712-6.712S28.686,0.367,31.059,0.354z"/>
</g>
</svg>
