<?xml version="1.0" encoding="utf-8"?>
<!-- Generator: Adobe Illustrator 17.0.0, SVG Export Plug-In . SVG Version: 6.00 Build 0)  -->
<!DOCTYPE svg PUBLIC "-//W3C//DTD SVG 1.1//EN" "http://www.w3.org/Graphics/SVG/1.1/DTD/svg11.dtd">
<svg version="1.1" xmlns="http://www.w3.org/2000/svg" xmlns:xlink="http://www.w3.org/1999/xlink" x="0px" y="0px" width="500px"
	 height="500px" viewBox="0 0 500 500" enable-background="new 0 0 500 500" xml:space="preserve">
<g id="Ebene_1" display="none">
	<path display="inline" fill="#FFFFFF" stroke="#FFFFFF" stroke-width="20" stroke-linejoin="round" stroke-miterlimit="10" d="
		M250.867,144.358c-45.378-77.582-239.528-68.62-239.528-68.62v290.456c0,0,194.15-8.962,239.528,68.62
		c45.378-77.582,239.527-68.62,239.527-68.62V75.738C490.394,75.738,296.245,66.776,250.867,144.358"/>
	
		<line display="inline" fill="#FFFFFF" stroke="#FFFFFF" stroke-width="20" stroke-miterlimit="10" x1="255.118" y1="192.756" x2="255.118" y2="391.181"/>
</g>
<g id="Ebene_2">
	<g>
		<path fill="#FFFFFF" d="M145.512,61.417v84.095H61.417V61.417H145.512 M205.512,1.417H1.417v204.095h204.095V1.417L205.512,1.417z
			"/>
	</g>
	<g>
		<path fill="#FFFFFF" d="M145.512,356.22v84.095H61.417V356.22H145.512 M205.512,296.22H1.417v204.095h204.095V296.22
			L205.512,296.22z"/>
	</g>
	<g>
		<path fill="#FFFFFF" d="M440.315,61.417v84.095H356.22V61.417H440.315 M500.315,1.417H296.22v204.095h204.095V1.417L500.315,1.417
			z"/>
	</g>
	<g>
		<path fill="#FFFFFF" d="M440.315,356.22v84.095H356.22V356.22H440.315 M500.315,296.22H296.22v204.095h204.095V296.22
			L500.315,296.22z"/>
	</g>
	<g>
		<path fill="#FFFFFF" d="M297.638,205.512v92.126h-92.126v-92.126H297.638 M357.638,145.512h-60h-92.126h-60v60v92.126v60h60
			h92.126h60v-60v-92.126V145.512L357.638,145.512z"/>
	</g>
</g>
</svg>
