<?xml version="1.0" encoding="utf-8"?>
<!-- Generator: Adobe Illustrator 18.1.1, SVG Export Plug-In . SVG Version: 6.00 Build 0)  -->
<svg version="1.1" xmlns="http://www.w3.org/2000/svg" xmlns:xlink="http://www.w3.org/1999/xlink" x="0px" y="0px"
	 viewBox="0 0 1133.9 1133.9" enable-background="new 0 0 1133.9 1133.9" xml:space="preserve">
<g id="Ebene_1" display="none">
	<g>
		<g display="inline">
			<path fill="#40FF8F" d="M526.7,421.3c25.5,42.6,40.2,92.4,40.2,145.6c0,53.2-14.7,103-40.2,145.6l167.7,61
				c38.9-59.4,61.5-130.4,61.5-206.6s-22.6-147.3-61.5-206.6L526.7,421.3z"/>
		</g>
		<g display="inline">
			<path fill="#40FF8F" d="M861.8,299.3c52.4,76.1,83,168.2,83,267.6s-30.7,191.5-83,267.6l167.2,60.9
				c66-92.7,104.8-206,104.8-328.4s-38.8-235.8-104.8-328.4L861.8,299.3z"/>
		</g>
		<circle display="inline" fill="#40FF8F" cx="189" cy="567" r="189"/>
	</g>
	<g display="inline">
		<g>
			<path fill="#FFFFFF" d="M609,191.3c22.1,36.8,34.8,79.8,34.8,125.9S631.1,406.2,609,443l145,52.8
				c33.6-51.3,53.1-112.7,53.1-178.6c0-65.9-19.5-127.3-53.1-178.6L609,191.3z"/>
		</g>
		<g>
			<path fill="#FFFFFF" d="M898.7,85.8c45.3,65.8,71.8,145.4,71.8,231.3S944,482.7,898.7,548.4l144.6,52.6
				c57-80.1,90.6-178.1,90.6-283.9s-33.5-203.8-90.6-283.9L898.7,85.8z"/>
		</g>
		<g>
			<g>
				<path fill="#FFFFFF" d="M33.2,1043.3c80.1,57,178.1,90.6,283.9,90.6s203.8-33.5,283.9-90.6L443,609
					c-36.8,22.1-79.8,34.8-125.9,34.8S228,631.1,191.3,609L33.2,1043.3z"/>
			</g>
		</g>
		<circle fill="#FFFFFF" cx="317.1" cy="317.1" r="163.3"/>
		<g display="none">
			<g display="inline">
				<g>
					<path fill="#FFFFFF" d="M0,1133.9L191.3,609c36.8,22.1,79.8,34.8,125.9,34.8S406.2,631.1,443,609l191.3,524.8L0,1133.9z"/>
				</g>
			</g>
		</g>
	</g>
</g>
<g id="Ebene_2">
	<g>
		<path fill="#9CC100" d="M850.4,102c0-56.3-45.6-102-102-102H385.5c-56.3,0-102,45.7-102,102v1031.9l248.1-248.1l-0.7,2.2
			c20-20,52.3-19.9,72.2,0l-0.7-2.2l248.1,248.1V102z"/>
	</g>
</g>
</svg>
