<?xml version="1.0" encoding="utf-8"?>
<!-- Generator: Adobe Illustrator 18.1.1, SVG Export Plug-In . SVG Version: 6.00 Build 0)  -->
<svg version="1.1" id="Ebene_1" xmlns="http://www.w3.org/2000/svg" xmlns:xlink="http://www.w3.org/1999/xlink" x="0px" y="0px"
	 viewBox="0 0 1133.9 1133.9" enable-background="new 0 0 1133.9 1133.9" xml:space="preserve">
<rect x="170.1" y="170.1" display="none" fill="#F6F6F6" width="793.7" height="793.7"/>
<g display="none">
	<g display="inline">
		<rect x="170.1" y="170.1" fill="#EDEDED" width="113.4" height="595.3"/>
		<rect x="283.5" y="170.1" fill="#EDEDED" width="113.4" height="595.3"/>
		<rect x="396.9" y="170.1" fill="#EDEDED" width="113.4" height="595.3"/>
		<rect x="510.2" y="170.1" fill="#EDEDED" width="113.4" height="595.3"/>
		<rect x="623.6" y="170.1" fill="#EDEDED" width="113.4" height="595.3"/>
		<rect x="737" y="170.1" fill="#EDEDED" width="113.4" height="595.3"/>
		<polygon fill="#EDEDED" points="850.4,878.7 850.4,765.4 623.6,765.4 		"/>
		<rect x="850.4" y="170.1" fill="#EDEDED" width="113.4" height="595.3"/>
	</g>
	<g display="inline">
		<rect x="170.1" y="170.1" fill="#EDEDED" width="793.7" height="85"/>
		<rect x="170.1" y="255.1" fill="#EDEDED" width="793.7" height="85"/>
		<rect x="170.1" y="340.2" fill="#EDEDED" width="793.7" height="85"/>
		<rect x="170.1" y="425.2" fill="#EDEDED" width="793.7" height="85"/>
		<rect x="170.1" y="510.2" fill="#EDEDED" width="793.7" height="85"/>
		<rect x="170.1" y="595.3" fill="#EDEDED" width="793.7" height="85"/>
		<rect x="170.1" y="680.3" fill="#EDEDED" width="793.7" height="85"/>
	</g>
	<g display="inline">
		<rect x="396.9" y="340.2" fill="#FFFFFF" width="340.2" height="85"/>
		<rect x="396.9" y="510.2" fill="#FFFFFF" width="340.2" height="85"/>
	</g>
</g>
<path fill="#536480" d="M1043.2,141.7H90.7V856h544.2l272.2,136.1V856h136.1L1043.2,141.7L1043.2,141.7z M771,652H362.9V549.9H771
	V652z M771,447.9H362.9V345.8H771V447.9z"/>
</svg>
