<?xml version="1.0" encoding="utf-8"?>
<!-- Generator: Adobe Illustrator 18.0.0, SVG Export Plug-In . SVG Version: 6.00 Build 0)  -->
<svg version="1.1" id="comment_1_" xmlns="http://www.w3.org/2000/svg" xmlns:xlink="http://www.w3.org/1999/xlink" x="0px" y="0px"
	 viewBox="0 0 1133.9 1133.9" enable-background="new 0 0 1133.9 1133.9" xml:space="preserve">
<path id="comment" fill="#1DCE73" d="M1009.8,121.6H123.9c-29.3,0-53.1,23.8-53.1,53.1v637.8c0,29.4,23.8,53.1,53.1,53.1h501.2
	c8.2,0,16.4,1.9,23.8,5.6L844.4,969c35.4,17.7,76.9-8.1,76.9-47.5v-2.6c0-29.4,23.8-53.1,53.1-53.1h35.4c29.4,0,53.1-23.8,53.1-53.1
	V174.7C1063,145.4,1039.2,121.6,1009.8,121.6z M726.3,653.2H407.4c-29.4,0-53.1-23.8-53.1-53.1l0,0c0-29.4,23.8-53.1,53.1-53.1
	h318.9c29.4,0,53.1,23.8,53.1,53.1l0,0C779.5,629.4,755.7,653.2,726.3,653.2z M726.3,440.5H407.4c-29.4,0-53.1-23.8-53.1-53.1l0,0
	c0-29.4,23.8-53.1,53.1-53.1h318.9c29.4,0,53.1,23.8,53.1,53.1l0,0C779.5,416.7,755.7,440.5,726.3,440.5z"/>
</svg>
