<?xml version="1.0" encoding="utf-8"?>
<!-- Generator: Adobe Illustrator 18.1.1, SVG Export Plug-In . SVG Version: 6.00 Build 0)  -->
<svg version="1.1" id="Ebene_1" xmlns="http://www.w3.org/2000/svg" xmlns:xlink="http://www.w3.org/1999/xlink" x="0px" y="0px"
	 viewBox="0 0 1133.9 1133.9" enable-background="new 0 0 1133.9 1133.9" xml:space="preserve">
<g id="Ebene_1_1_" display="none">
	<g display="inline">
		<polygon fill="#2C323E" points="283.5,283.5 283.5,566.9 566.9,566.9 566.9,283.5 566.9,0 		"/>
		<rect y="283.5" fill="#2C323E" width="283.5" height="283.5"/>
		<rect y="566.9" fill="#2C323E" width="283.5" height="283.5"/>
		<polygon fill="#2C323E" points="283.5,850.4 566.9,1133.9 566.9,850.4 566.9,566.9 283.5,566.9 		"/>
	</g>
</g>
<g display="none">
	<path display="inline" fill="#FE9B3E" d="M738.1,926.6h-102v102C636.1,972.3,681.8,926.6,738.1,926.6z"/>
	<path display="inline" fill="#FE9B3E" d="M636.1,1028.6v102h102C681.8,1130.7,636.1,1085,636.1,1028.6z"/>
	<path display="inline" fill="#FE9B3E" d="M738.1,1130.7h102v-102C840.2,1085,794.5,1130.7,738.1,1130.7z"/>
	<path display="inline" fill="#FE9B3E" d="M738.1,926.6c56.4,0,102,45.7,102,102v-102H738.1z"/>
	<g display="inline">
		<path fill="#2C323E" d="M900.6,909.9l-5.3,4.3C897,912.8,898.8,911.3,900.6,909.9z"/>
	</g>
</g>
<g display="none">
	
		<rect x="494.3" y="-157.6" transform="matrix(0.7071 0.7071 -0.7071 0.7071 536.8632 -222.376)" display="inline" fill="#2C323E" width="85" height="1389"/>
	
		<rect x="554.5" y="-97.5" transform="matrix(0.7071 0.7071 -0.7071 0.7071 596.9951 -247.2835)" display="inline" fill="#2C323E" width="85" height="1389"/>
</g>
<g>
	<g>
		<path fill="#2C323E" d="M997.9,15.7L623.6,390V108.9c0-28.1-22.8-51-51-51c-12.2,0-23.4,4.3-32.2,11.5L283.5,283.5H102
			c-56.4,0-102,45.7-102,102v364.2c0,50.7,37,92.7,85.4,100.7h77.8L15.7,997.9l60.1,60.1l207.6-207.6l340.1-340.1L1058,75.9
			L997.9,15.7z"/>
		<path fill="#2C323E" d="M349.1,905l190.5,158.7c8.9,7.6,20.4,12.1,33,12.1c28.2,0,51-22.8,51-51V630.5L349.1,905z"/>
	</g>
	<g>
		<path fill="#2C323E" d="M1064.3,566.8c0-105.5-37-202.3-98.7-278.2L915.1,339c49.1,62.8,78.4,141.9,78.4,227.7h0.1
			c0,116-53.4,219.5-137,287.3l0.7-0.5c-15.3,12.2-17.9,34.5-5.7,49.8c12.1,15.2,34.3,17.8,49.6,5.9
			c99.5-80.6,163.2-204,163.2-342.4L1064.3,566.8C1064.3,566.9,1064.3,566.9,1064.3,566.8z"/>
	</g>
	<g>
		<path fill="#2C323E" d="M788.2,465.9c17.9,29.4,28.3,63.9,28.3,100.9c0,0,0,0,0,0.1c0,72.4-39.9,135.4-98.9,168.4
			c-16.9,9.8-22.5,31.5-12.7,48.3c9.8,16.8,31.2,22.5,48.1,13c80.1-45.2,134.3-131.1,134.3-229.7v-0.1c0-56.6-17.8-109-48-152.1
			L788.2,465.9z"/>
	</g>
</g>
</svg>
