<?xml version="1.0" encoding="utf-8"?>
<!-- Generator: Adobe Illustrator 18.1.1, SVG Export Plug-In . SVG Version: 6.00 Build 0)  -->
<svg version="1.1" id="Ebene_1" xmlns="http://www.w3.org/2000/svg" xmlns:xlink="http://www.w3.org/1999/xlink" x="0px" y="0px"
	 viewBox="-541 541.9 50 50" enable-background="new -541 541.9 50 50" xml:space="preserve">
<g>
	<path display="none" d="M-541,541.9h50v50h-50V541.9z"/>
	
		<circle fill="#2C323E" stroke="#2C323E" stroke-width="2" stroke-linecap="round" stroke-miterlimit="10" cx="-516" cy="566.9" r="24"/>
	<path fill="#FFFFFF" d="M-511.1,577.4c-0.1-1.6-0.1-2.7-0.1-4.2c0.7-0.4,2-2.8,2.3-4.9c0.6,0,1.5-0.6,1.7-2.8
		c0.1-1.2-0.4-1.9-0.8-2.1c0.9-2.8,2.9-11.5-3.6-12.4c-0.7-1.2-2.4-1.8-4.6-1.8c-8.9,0.2-9.9,6.7-8,14.2c-0.3,0.2-0.9,0.9-0.8,2.1
		c0.3,2.2,1.2,2.8,1.7,2.8c0.2,2.1,1.6,4.5,2.3,4.9c0,1.5,0.1,2.6-0.1,4.2c-1.3,3.4-7.7,3.7-11.5,6.9c3.9,3.9,10.2,6.7,16.9,6.7
		s14.5-5.3,15.8-6.7C-503.3,581-509.8,580.8-511.1,577.4z"/>
</g>
</svg>
