<?xml version="1.0" encoding="utf-8"?>
<!-- Generator: Adobe Illustrator 18.1.1, SVG Export Plug-In . SVG Version: 6.00 Build 0)  -->
<svg version="1.1" id="Ebene_1" xmlns="http://www.w3.org/2000/svg" xmlns:xlink="http://www.w3.org/1999/xlink" x="0px" y="0px"
	 viewBox="0 0 1133.9 1133.9" enable-background="new 0 0 1133.9 1133.9" xml:space="preserve">
<g>
	<path fill="#2C323E" d="M1057.9,75.8l-60.1-60.1L849.1,164.4H42.3c0,26.1,9.9,52.2,29.8,72.1L378,542.4v93.2L15.7,997.8l60.1,60.1
		L378,755.7v0.2l591.5-591.5h-0.2L1057.9,75.8z"/>
	<path fill="#2C323E" d="M379,875.1c3.7,26.6,17.7,49.9,37.8,65.7c3.8,3,7.9,5.8,12.2,8.3l0,0l327,184.7V542.4l305.9-305.9
		c19.9-19.9,29.8-46,29.8-72h-2L379,875.1z"/>
</g>
</svg>
