<?xml version="1.0" encoding="utf-8"?>
<!-- Generator: Adobe Illustrator 17.0.0, SVG Export Plug-In . SVG Version: 6.00 Build 0)  -->
<!DOCTYPE svg PUBLIC "-//W3C//DTD SVG 1.1//EN" "http://www.w3.org/Graphics/SVG/1.1/DTD/svg11.dtd">
<svg version="1.1" id="Ebene_1" xmlns="http://www.w3.org/2000/svg" xmlns:xlink="http://www.w3.org/1999/xlink" x="0px" y="0px"
	 width="1133.86px" height="1133.86px" viewBox="0 0 1133.86 1133.86" enable-background="new 0 0 1133.86 1133.86"
	 xml:space="preserve">
<rect x="170.079" y="170.079" display="none" fill="#F6F6F6" width="793.701" height="793.701"/>
<g display="none">
	
		<rect x="170.079" y="170.079" display="inline" fill="none" stroke="#1D1D1B" stroke-miterlimit="10" width="113.386" height="793.701"/>
	
		<rect x="283.465" y="170.079" display="inline" fill="none" stroke="#1D1D1B" stroke-miterlimit="10" width="113.386" height="793.701"/>
	
		<rect x="396.85" y="170.079" display="inline" fill="none" stroke="#1D1D1B" stroke-miterlimit="10" width="113.386" height="793.701"/>
	
		<rect x="510.237" y="170.079" display="inline" fill="none" stroke="#1D1D1B" stroke-miterlimit="10" width="113.386" height="793.701"/>
	
		<rect x="623.623" y="170.079" display="inline" fill="none" stroke="#1D1D1B" stroke-miterlimit="10" width="113.386" height="793.701"/>
	
		<rect x="737.009" y="170.079" display="inline" fill="none" stroke="#1D1D1B" stroke-miterlimit="10" width="113.386" height="793.701"/>
	
		<rect x="850.395" y="170.079" display="inline" fill="none" stroke="#1D1D1B" stroke-miterlimit="10" width="113.386" height="793.701"/>
</g>
<g display="none">
	
		<rect x="170.079" y="170.078" display="inline" fill="none" stroke="#1D1D1B" stroke-miterlimit="10" width="793.701" height="113.386"/>
	
		<rect x="170.079" y="283.464" display="inline" fill="none" stroke="#1D1D1B" stroke-miterlimit="10" width="793.701" height="113.386"/>
	
		<rect x="170.079" y="396.85" display="inline" fill="none" stroke="#1D1D1B" stroke-miterlimit="10" width="793.701" height="113.386"/>
	
		<rect x="170.079" y="510.237" display="inline" fill="none" stroke="#1D1D1B" stroke-miterlimit="10" width="793.701" height="113.386"/>
	
		<rect x="170.079" y="623.622" display="inline" fill="none" stroke="#1D1D1B" stroke-miterlimit="10" width="793.701" height="113.386"/>
	
		<rect x="170.079" y="737.008" display="inline" fill="none" stroke="#1D1D1B" stroke-miterlimit="10" width="793.701" height="113.386"/>
	
		<rect x="170.079" y="850.394" display="inline" fill="none" stroke="#1D1D1B" stroke-miterlimit="10" width="793.701" height="113.386"/>
</g>
<path fill="#FFFFFF" d="M1133.858,0.001L566.93,0L0,566.929l566.929,566.929l566.929-566.927L1133.858,0.001z M769.403,161.98
	h202.476l-0.001,202.475L769.403,161.98z"/>
</svg>
