<?xml version="1.0" encoding="utf-8"?>
<!-- Generator: Adobe Illustrator 18.1.1, SVG Export Plug-In . SVG Version: 6.00 Build 0)  -->
<svg version="1.1" id="Ebene_1" xmlns="http://www.w3.org/2000/svg" xmlns:xlink="http://www.w3.org/1999/xlink" x="0px" y="0px"
	 viewBox="0 0 1133.9 1133.9" enable-background="new 0 0 1133.9 1133.9" xml:space="preserve">
<rect x="170.1" y="170.1" display="none" fill="#F6F6F6" width="793.7" height="793.7"/>
<g display="none">
	<rect x="170.1" y="170.1" display="inline" fill="none" stroke="#1D1D1B" stroke-miterlimit="10" width="113.4" height="793.7"/>
	<rect x="283.5" y="170.1" display="inline" fill="none" stroke="#1D1D1B" stroke-miterlimit="10" width="113.4" height="793.7"/>
	<rect x="396.9" y="170.1" display="inline" fill="none" stroke="#1D1D1B" stroke-miterlimit="10" width="113.4" height="793.7"/>
	<rect x="510.2" y="170.1" display="inline" fill="none" stroke="#1D1D1B" stroke-miterlimit="10" width="113.4" height="793.7"/>
	<rect x="623.6" y="170.1" display="inline" fill="none" stroke="#1D1D1B" stroke-miterlimit="10" width="113.4" height="793.7"/>
	<rect x="737" y="170.1" display="inline" fill="none" stroke="#1D1D1B" stroke-miterlimit="10" width="113.4" height="793.7"/>
	<rect x="850.4" y="170.1" display="inline" fill="none" stroke="#1D1D1B" stroke-miterlimit="10" width="113.4" height="793.7"/>
</g>
<g display="none">
	<rect x="170.1" y="170.1" display="inline" fill="none" stroke="#1D1D1B" stroke-miterlimit="10" width="793.7" height="113.4"/>
	<rect x="170.1" y="283.5" display="inline" fill="none" stroke="#1D1D1B" stroke-miterlimit="10" width="793.7" height="113.4"/>
	<rect x="170.1" y="396.9" display="inline" fill="none" stroke="#1D1D1B" stroke-miterlimit="10" width="793.7" height="113.4"/>
	<rect x="170.1" y="510.2" display="inline" fill="none" stroke="#1D1D1B" stroke-miterlimit="10" width="793.7" height="113.4"/>
	<rect x="170.1" y="623.6" display="inline" fill="none" stroke="#1D1D1B" stroke-miterlimit="10" width="793.7" height="113.4"/>
	<rect x="170.1" y="737" display="inline" fill="none" stroke="#1D1D1B" stroke-miterlimit="10" width="793.7" height="113.4"/>
	<rect x="170.1" y="850.4" display="inline" fill="none" stroke="#1D1D1B" stroke-miterlimit="10" width="793.7" height="113.4"/>
</g>
<path fill="#2C323E" d="M1133.9,0L566.9,0L0,566.9l566.9,566.9l566.9-566.9V0z M769.4,162h202.5l0,202.5L769.4,162z"/>
</svg>
