<?xml version="1.0" encoding="utf-8"?>
<!-- Generator: Adobe Illustrator 18.0.0, SVG Export Plug-In . SVG Version: 6.00 Build 0)  -->
<svg version="1.1" id="Ebene_1" xmlns="http://www.w3.org/2000/svg" xmlns:xlink="http://www.w3.org/1999/xlink" x="0px" y="0px"
	 viewBox="0 0 79.4 79.4" enable-background="new 0 0 79.4 79.4" xml:space="preserve">
<path fill="#ECEFF4" d="M72.2,79.4c3.9,0,7.1-3.2,7.1-7.1V7.1c0-3.9-3.2-7.1-7.1-7.1H7.1C3.2,0,0,3.2,0,7.1v65.1
	c0,3.9,3.2,7.1,7.1,7.1H72.2z M36.9,68.6l-2.3-2.3c-1.5-1.5-1.5-4.1,0-5.6l2.3-2.3c1.5-1.5,4.1-1.5,5.6,0l2.3,2.3
	c1.5,1.5,1.5,4.1,0,5.6l-2.3,2.3C40.9,70.2,38.4,70.2,36.9,68.6z M53.9,47.6H41.3c-3.5,0-5.3-4.3-2.8-6.8l0,0
	c0.7-0.7,1.8-1.2,2.8-1.2h10.3c2.2,0,4-1.8,4-4V19.8c0-2.2-1.8-4-4-4H27.8c-2.2,0-4,1.8-4,4v0c0,2.2-1.8,4-4,4h0c-2.2,0-4-1.8-4-4
	v-2.3c0-1.1,0.4-2.1,1.2-2.8l5.6-5.6c0.7-0.7,1.8-1.2,2.8-1.2h28.5c1.1,0,2.1,0.4,2.8,1.2l5.6,5.6c0.7,0.7,1.2,1.8,1.2,2.8v22.2h0
	l-6.8,6.8C56,47.2,55,47.6,53.9,47.6z"/>
</svg>
