<?xml version="1.0" encoding="utf-8"?>
<!-- Generator: Adobe Illustrator 17.0.0, SVG Export Plug-In . SVG Version: 6.00 Build 0)  -->
<!DOCTYPE svg PUBLIC "-//W3C//DTD SVG 1.1//EN" "http://www.w3.org/Graphics/SVG/1.1/DTD/svg11.dtd">
<svg version="1.1" xmlns="http://www.w3.org/2000/svg" xmlns:xlink="http://www.w3.org/1999/xlink" x="0px" y="0px"
	 width="1133.86px" height="1133.86px" viewBox="0 0 1133.86 1133.86" enable-background="new 0 0 1133.86 1133.86"
	 xml:space="preserve">
<g id="Ebene_1" display="none">
	<rect x="0" y="0" fill="#1A1A1A" width="1133.858" height="1133.858"/>
	<path display="inline" fill="#1A1A1A" d="M1133.858,921.26c0,117.415-95.184,212.598-212.598,212.598H212.598
		C95.184,1133.858,0,1038.675,0,921.26V212.598C0,95.184,95.184,0,212.598,0H921.26c117.415,0,212.598,95.184,212.598,212.598
		V921.26z"/>
	<polygon display="inline" fill="none" stroke="#FFFFFF" stroke-width="80" stroke-miterlimit="10" points="566.929,800.788 
		439.37,673.228 311.811,800.788 311.811,460.63 439.37,333.071 566.929,460.63 694.488,333.071 822.047,460.63 822.047,800.788 
		694.488,673.228 	"/>
</g>
<g id="Ebene_2">
	<rect x="0" y="0" fill="#248BF2" width="1133.86" height="1133.86"/>
	<g>
		<path fill="#FFFFFF" d="M716.23,417.629l-149.3,298.601L417.629,417.629l122.468,61.234l26.833,13.416l26.833-13.416
			L716.23,417.629 M850.394,283.465L566.929,425.197L283.465,283.465l283.465,566.929L850.394,283.465L850.394,283.465z"/>
	</g>
	<g>
		<path fill="#FFFFFF" d="M716.23,417.629l-149.3,298.601L417.629,417.629l122.468,61.234l26.833,13.416l26.833-13.416
			L716.23,417.629 M850.394,283.465L566.929,425.197L283.465,283.465l283.465,566.929L850.394,283.465L850.394,283.465z"/>
	</g>
</g>
</svg>
