<?xml version="1.0" encoding="utf-8"?>
<!-- Generator: Adobe Illustrator 18.1.1, SVG Export Plug-In . SVG Version: 6.00 Build 0)  -->
<svg version="1.1" id="Ebene_1" xmlns="http://www.w3.org/2000/svg" xmlns:xlink="http://www.w3.org/1999/xlink" x="0px" y="0px"
	 viewBox="0 0 1133.9 1133.9" enable-background="new 0 0 1133.9 1133.9" xml:space="preserve">
<path fill="#D5355B" d="M521,733.1c14.7,3.1,29.9,4.7,45.5,4.7c117.4,0,212.5-91.6,212.5-204.7v-58L521,733.1z"/>
<path fill="#D5355B" d="M913.5,425.2c-24,0-43.5,19.4-43.5,43.4V557c0,166.7-135,301-301.8,301h-3.3c-49.2,0-95.5-11.7-136.4-32.4
	l-63.6,63.6c47.1,28.4,100.6,47.2,158.1,53.5V1047H347c-23.8,0-43,19.3-43,43v1c0,23.8,19.3,43,43,43h439c23.8,0,43-19.3,43-43v-1
	c0-23.8-19.3-43-43-43H611V942.6c194.7-21.8,346-186.3,346-386.8v-87.2C957,444.6,937.5,425.2,913.5,425.2z"/>
<path fill="#D5355B" d="M1045.3,88.6l12.7-12.7l-60.1-60.1L779,234.6v-29.9C779,91.6,683.9,0,566.5,0S354,91.6,354,204.7v328.5
	c0,36.2,9.8,70.1,26.8,99.6l-76,76C278.9,664.3,264,612.4,264,557v-88.4c0-24-19.5-43.4-43.5-43.4S177,444.6,177,468.6v87.2
	c0,79.9,23.9,154.1,65,215.8L15.7,997.9l60.1,60.1l474-474L1045.3,88.6L1045.3,88.6z"/>
</svg>
