<?xml version="1.0" encoding="utf-8"?>
<!-- Generator: Adobe Illustrator 18.0.0, SVG Export Plug-In . SVG Version: 6.00 Build 0)  -->
<svg version="1.1" id="microphone" xmlns="http://www.w3.org/2000/svg" xmlns:xlink="http://www.w3.org/1999/xlink" x="0px" y="0px"
	 viewBox="0 0 1133.9 1133.9" enable-background="new 0 0 1133.9 1133.9" xml:space="preserve">
<path id="_x33_" fill="#F04141" d="M910.8,425.2c-22.8,1.3-40.9,20.2-40.9,43.3v88.4c0,166.7-135,301-301.8,301h-3.3
	c-49.1,0-95.4-11.7-136.3-32.4l-63.6,63.6c47,28.4,100.5,47.1,157.9,53.4c0.1,0,0.1,0.1,0.1,0.2v104.1c0,0.1-0.1,0.2-0.2,0.2H346.9
	c-23.8,0-43,19.3-43,43v1c0,23.8,19.3,43,43,43h439c23.8,0,43-19.3,43-43v-1c0-23.8-19.3-43-43-43H611c-0.1,0-0.2-0.1-0.2-0.2V942.6
	c0-0.1,0.1-0.1,0.1-0.2c194.6-21.9,345.9-186.3,345.9-386.8v-86.2C956.9,444.3,935.9,423.7,910.8,425.2z"/>
<path id="_x32_" fill="#F04141" d="M778.9,533.1v-58l-258,258c14.7,3.1,29.9,4.7,45.5,4.7C683.8,737.8,778.9,646.1,778.9,533.1z"/>
<path id="_x31_" fill="#F04141" d="M296.7,836.9l0.1,0.1l61.1-61.1l-0.1-0.1l79.8-79.8l0.1,0.1L778.8,355v-0.2l248.9-248.9
	c16.6-16.6,16.6-43.5,0-60.1c-16.6-16.6-43.5-16.6-60.1,0L778.9,234.5v-29.9c0-113.1-95.1-204.7-212.5-204.7S353.9,91.6,353.9,204.6
	v328.5c0,36.2,9.7,70.1,26.8,99.6l-76,76c-25.9-44.5-40.8-96.4-40.8-151.8v-87.4c0-25.2-20.9-45.8-46.1-44.3
	c-22.8,1.3-40.9,20.2-40.9,43.3v87.2c0,79.9,23.9,154,65,215.8L45.7,967.7c-16.5,16.6-16.5,43.5,0,60.1c16.6,16.6,43.5,16.6,60.1,0
	L296.7,836.9z"/>
</svg>
