<?xml version="1.0" encoding="utf-8"?>
<!-- Generator: Adobe Illustrator 18.1.1, SVG Export Plug-In . SVG Version: 6.00 Build 0)  -->
<svg version="1.1" id="Ebene_1" xmlns="http://www.w3.org/2000/svg" xmlns:xlink="http://www.w3.org/1999/xlink" x="0px" y="0px"
	 viewBox="0 0 1133.9 1133.9" enable-background="new 0 0 1133.9 1133.9" xml:space="preserve">
<g id="Ebene_1_1_" display="none">
	<g display="inline">
		<polygon fill="#2C323E" points="283.5,283.5 283.5,566.9 566.9,566.9 566.9,283.5 566.9,0 		"/>
		<rect y="283.5" fill="#2C323E" width="283.5" height="283.5"/>
		<rect y="566.9" fill="#2C323E" width="283.5" height="283.5"/>
		<polygon fill="#2C323E" points="283.5,850.4 566.9,1133.9 566.9,850.4 566.9,566.9 283.5,566.9 		"/>
	</g>
</g>
<g id="Ebene_2">
	<path fill="#2C323E" d="M572.6,57.9c-12.2,0-23.4,4.3-32.2,11.5L283.5,283.5H102c-56.4,0-102,45.7-102,102v364.2
		c0,50.7,37,92.7,85.4,100.7h198.1l256.1,213.4l0,0c8.9,7.6,20.4,12.1,33,12.1c28.2,0,51-22.8,51-51v-916
		C623.6,80.8,600.8,57.9,572.6,57.9z"/>
	<g display="none">
		<path display="inline" fill="#FE9B3E" d="M738.1,926.6h-102v102C636.1,972.3,681.8,926.6,738.1,926.6z"/>
		<path display="inline" fill="#FE9B3E" d="M636.1,1028.6v102h102C681.8,1130.7,636.1,1085,636.1,1028.6z"/>
		<path display="inline" fill="#FE9B3E" d="M738.1,1130.7h102v-102C840.2,1085,794.5,1130.7,738.1,1130.7z"/>
		<path display="inline" fill="#FE9B3E" d="M738.1,926.6c56.4,0,102,45.7,102,102v-102H738.1z"/>
		<g display="inline">
			<path fill="#2C323E" d="M900.6,909.9l-5.3,4.3C897,912.8,898.8,911.3,900.6,909.9z"/>
		</g>
	</g>
</g>
<path fill="#2C323E" d="M887.3,566.9c0-98.9-54.2-185.1-134.3-230.5c-16.9-9.5-38.3-3.8-48.1,13s-4.2,38.6,12.7,48.5
	c59,33.1,98.9,96.3,98.9,169c0,0,0,0,0,0.1c0,0,0,0,0,0c0,72.4-39.9,135.4-98.9,168.4c-16.9,9.8-22.5,31.5-12.7,48.3
	s31.2,22.5,48.1,13c80.1-45.2,134.3-131.1,134.3-229.7C887.3,567,887.3,566.9,887.3,566.9C887.3,566.9,887.3,566.9,887.3,566.9z"/>
<path fill="#2C323E" d="M1064.4,566.9h-0.1c0,0,0,0,0-0.1c0-138.3-63.6-261.7-163.1-342.5c-15.3-11.9-37.4-9.3-49.5,5.9
	c-12.2,15.3-9.6,37.6,5.7,49.8l-0.7-0.5c83.5,67.9,136.8,171.4,136.8,287.3h0.1c0,116-53.4,219.5-137,287.3l0.7-0.5
	c-15.3,12.2-17.9,34.5-5.7,49.8c12.1,15.2,34.3,17.8,49.6,5.9C1000.7,828.7,1064.4,705.3,1064.4,566.9
	C1064.4,567,1064.4,566.9,1064.4,566.9z"/>
</svg>
