<?xml version="1.0" encoding="utf-8"?>
<!-- Generator: Adobe Illustrator 18.1.1, SVG Export Plug-In . SVG Version: 6.00 Build 0)  -->
<svg version="1.1" id="Ebene_1" xmlns="http://www.w3.org/2000/svg" xmlns:xlink="http://www.w3.org/1999/xlink" x="0px" y="0px"
	 viewBox="0 0 1133.9 1133.9" enable-background="new 0 0 1133.9 1133.9" xml:space="preserve">
<g>
	<path fill="#ECEFF4" d="M566.9,1098.4c-71.8,0-141.4-14-206.8-41.7c-63.3-26.8-120.1-65.1-168.9-113.9
		C142.3,893.9,104,837.1,77.2,773.8c-27.7-65.5-41.7-135.1-41.7-206.8s14-141.4,41.7-206.8C104,296.8,142.3,240,191.2,191.2
		C240,142.3,296.8,104,360.1,77.2c65.5-27.7,135.1-41.7,206.8-41.7s141.4,14,206.8,41.7c63.3,26.8,120.1,65.1,168.9,113.9
		c48.8,48.8,87.1,105.7,113.9,168.9c27.7,65.5,41.7,135.1,41.7,206.8s-14,141.4-41.7,206.8c-26.8,63.3-65.1,120.1-113.9,168.9
		c-48.8,48.8-105.7,87.1-168.9,113.9C708.3,1084.3,638.7,1098.4,566.9,1098.4z"/>
	<path fill="#ACB9CA" d="M566.9,71c67,0,131.9,13.1,193,38.9c59,25,112.1,60.7,157.7,106.3c45.6,45.6,81.3,98.6,106.3,157.7
		c25.8,61.1,38.9,126,38.9,193s-13.1,131.9-38.9,193c-25,59-60.7,112.1-106.3,157.7c-45.6,45.6-98.6,81.3-157.7,106.3
		c-61.1,25.8-126,38.9-193,38.9s-131.9-13.1-193-38.9c-59-25-112.1-60.7-157.7-106.3C170.7,872,134.9,819,109.9,759.9
		c-25.8-61.1-38.9-126-38.9-193s13.1-131.9,38.9-193c25-59,60.7-112.1,106.3-157.7c45.6-45.6,98.6-81.3,157.7-106.3
		C435,84.1,499.9,71,566.9,71 M566.9,0C253.8,0,0,253.8,0,566.9s253.8,566.9,566.9,566.9s566.9-253.8,566.9-566.9S880,0,566.9,0
		L566.9,0z"/>
</g>
<circle fill="#536480" cx="566.9" cy="566.9" r="212.6"/>
</svg>
