<?xml version="1.0" encoding="utf-8"?>
<!-- Generator: Adobe Illustrator 18.0.0, SVG Export Plug-In . SVG Version: 6.00 Build 0)  -->
<svg version="1.1" id="microphone" xmlns="http://www.w3.org/2000/svg" xmlns:xlink="http://www.w3.org/1999/xlink" x="0px" y="0px"
	 viewBox="0 0 1133.9 1133.9" enable-background="new 0 0 1133.9 1133.9" xml:space="preserve">
<path id="_x32_" fill="#8392A9" d="M869.9,556.9c0,166.7-135,301-301.8,301h-3.3c-166.8,0-300.9-134.3-300.9-301v-87.4
	c0-25.2-20.9-45.8-46.1-44.3c-22.8,1.3-40.9,20.2-40.9,43.3v87.2c0,200.6,150.9,365.4,345.9,386.9c0.1,0,0.1,0.1,0.1,0.2v104.1
	c0,0.1-0.1,0.2-0.2,0.2H346.9c-23.8,0-43,19.3-43,43v1c0,23.8,19.3,43,43,43h439c23.8,0,43-19.3,43-43v-1c0-23.8-19.3-43-43-43H611
	c-0.1,0-0.2-0.1-0.2-0.2V942.6c0-0.1,0.1-0.1,0.1-0.2c194.6-21.9,345.9-186.3,345.9-386.8v-86.2c0-25.2-20.9-45.8-46.1-44.3
	c-22.8,1.3-40.9,20.2-40.9,43.3v88.5H869.9z"/>
<path id="_x31_" fill="#8392A9" d="M778.9,533.1c0,113-95.1,204.7-212.5,204.7l0,0c-117.4,0-212.5-91.6-212.5-204.7V204.6
	c0-113,95.1-204.7,212.5-204.7l0,0c117.4,0,212.5,91.6,212.5,204.7V533.1z"/>
</svg>
