<?xml version="1.0" encoding="utf-8"?>
<!-- Generator: Adobe Illustrator 18.0.0, SVG Export Plug-In . SVG Version: 6.00 Build 0)  -->
<svg version="1.1" xmlns="http://www.w3.org/2000/svg" xmlns:xlink="http://www.w3.org/1999/xlink" x="0px" y="0px"
	 viewBox="0 0 1200 1200" enable-background="new 0 0 1200 1200" xml:space="preserve">
<g id="grid" display="none">
	<g id="tilt_x5F_down" display="inline">
	</g>
	<g id="tilt_x5F_up" display="inline">
	</g>
	<g id="vertical" display="inline">
	</g>
	<g id="horizontal" display="inline">
	</g>
</g>
<g id="Ebene_6">
	<path id="background" d="M1050,1150H150c-55,0-100-45-100-100V150C50,95,95,50,150,50h900c55,0,100,45,100,100v900
		C1150,1105,1105,1150,1050,1150z"/>
	<path fill="#FFFFFF" d="M756.7,228.6l86.6,50c23.9,13.8,32.1,44.4,18.3,68.3l-11.5,20c-5.2,9-4.3,20.2,2.3,28.3
		c21.5,26.5,39,56.4,51.3,88.8c3.7,9.7,13,16.1,23.3,16.1h23c27.6,0,50,22.4,50,50v100c0,27.6-22.4,50-50,50h-23
		c-10.4,0-19.6,6.4-23.3,16.1c-12.4,32.4-29.8,62.3-51.3,88.8c-6.5,8-7.4,19.3-2.3,28.3l11.5,20c13.8,23.9,5.6,54.5-18.3,68.3
		l-86.6,50c-23.9,13.8-54.5,5.6-68.3-18.3l-11.5-20c-5.2-9-15.3-13.8-25.6-12.2c-16.7,2.7-33.8,4-51.3,4c-17.5,0-34.6-1.4-51.3-4
		c-10.2-1.6-20.4,3.2-25.6,12.2l-11.5,20c-13.8,23.9-44.4,32.1-68.3,18.3l-86.6-50c-23.9-13.8-32.1-44.4-18.3-68.3l11.5-20
		c5.2-9,4.3-20.2-2.3-28.3c-21.5-26.5-38.9-56.4-51.3-88.8c-3.7-9.7-13-16.1-23.3-16.1h-23c-27.6,0-50-22.4-50-50V550
		c0-27.6,22.4-50,50-50h23c10.4,0,19.6-6.4,23.3-16.1c12.4-32.4,29.8-62.3,51.3-88.8c6.5-8,7.4-19.3,2.3-28.3l-11.5-20
		c-13.8-23.9-5.6-54.5,18.3-68.3l86.6-50c23.9-13.8,54.5-5.6,68.3,18.3l11.5,20c5.2,9,15.3,13.8,25.6,12.2c16.7-2.7,33.9-4,51.3-4
		c17.5,0,34.6,1.4,51.3,4c10.2,1.6,20.4-3.2,25.6-12.2l11.5-20C702.2,223,732.8,214.8,756.7,228.6z"/>
	<circle cx="600" cy="600" r="225"/>
	<circle fill="#FFFFFF" cx="600" cy="600" r="150"/>
</g>
<g id="stroke" display="none">
	
		<rect x="592.2" y="159.1" transform="matrix(0.7071 0.7071 -0.7071 0.7071 618.75 -256.2946)" display="inline" width="53" height="919.2"/>
	
		<rect x="509.5" y="102.9" transform="matrix(0.7071 0.7071 -0.7071 0.7071 562.5 -232.9951)" display="inline" fill="#FFFFFF" width="106.1" height="919.2"/>
</g>
</svg>
