<?xml version="1.0" encoding="utf-8"?>
<!-- Generator: Adobe Illustrator 18.0.0, SVG Export Plug-In . SVG Version: 6.00 Build 0)  -->
<svg version="1.1" id="microphone-muted" xmlns="http://www.w3.org/2000/svg" xmlns:xlink="http://www.w3.org/1999/xlink" x="0px"
	 y="0px" viewBox="0 0 800 800" enable-background="new 0 0 800 800" xml:space="preserve">
<g id="mic">
	<path id="background" d="M727.3,800H72.7C32.7,800,0,767.3,0,727.3V72.7C0,32.7,32.7,0,72.7,0h654.5c40,0,72.7,32.7,72.7,72.7
		v654.5C800,767.3,767.3,800,727.3,800z"/>
	<path fill="#FFFFFF" d="M517.5,121.4l64.9,37.5c17.9,10.4,24.1,33.3,13.7,51.2l-8.7,15c-3.9,6.7-3.2,15.2,1.7,21.2
		c16.1,19.9,29.2,42.3,38.5,66.6c2.8,7.3,9.7,12,17.5,12h17.2c20.7,0,37.5,16.8,37.5,37.5v75c0,20.7-16.8,37.5-37.5,37.5h-17.2
		c-7.8,0-14.7,4.8-17.5,12c-9.3,24.3-22.4,46.8-38.5,66.6c-4.9,6-5.6,14.5-1.7,21.2l8.7,15c10.4,17.9,4.2,40.9-13.7,51.2l-64.9,37.5
		c-17.9,10.4-40.9,4.2-51.2-13.7l-8.6-15c-3.9-6.7-11.5-10.4-19.2-9.1c-12.5,2-25.4,3-38.5,3c-13.1,0-25.9-1-38.5-3
		c-7.7-1.2-15.3,2.4-19.2,9.1l-8.6,15c-10.4,17.9-33.3,24.1-51.2,13.7l-64.9-37.5c-17.9-10.4-24.1-33.3-13.7-51.2l8.7-15
		c3.9-6.7,3.2-15.2-1.7-21.2c-16.1-19.8-29.2-42.3-38.5-66.6c-2.8-7.3-9.7-12-17.5-12h-17.3c-20.7,0-37.5-16.8-37.5-37.5v-75
		c0-20.7,16.8-37.5,37.5-37.5h17.3c7.8,0,14.7-4.8,17.5-12c9.3-24.3,22.4-46.7,38.5-66.6c4.9-6,5.6-14.5,1.7-21.2l-8.7-15
		c-10.4-17.9-4.2-40.9,13.7-51.2l64.9-37.5c17.9-10.4,40.9-4.2,51.2,13.7l8.6,15c3.9,6.7,11.5,10.4,19.2,9.1c12.5-2,25.4-3,38.5-3
		c13.1,0,25.9,1,38.5,3c7.7,1.2,15.3-2.4,19.2-9.1l8.6-15C476.7,117.2,499.6,111.1,517.5,121.4z"/>
	<circle cx="400" cy="400" r="168.8"/>
	<circle fill="#FFFFFF" cx="400" cy="400" r="112.5"/>
</g>
<g id="stroke" display="none">
	
		<rect x="395.7" y="69.3" transform="matrix(-0.7071 -0.7071 0.7071 -0.7071 416.7709 1000.6386)" display="inline" width="39.7" height="689.4"/>
	
		<rect x="333.7" y="27.2" transform="matrix(-0.7071 -0.7071 0.7071 -0.7071 374.5721 898.9445)" display="inline" fill="#FFFFFF" width="79.6" height="689.4"/>
</g>
</svg>
