<?xml version="1.0" encoding="utf-8"?>
<!-- Generator: Adobe Illustrator 18.0.0, SVG Export Plug-In . SVG Version: 6.00 Build 0)  -->
<svg version="1.1" id="favorite" xmlns="http://www.w3.org/2000/svg" xmlns:xlink="http://www.w3.org/1999/xlink" x="0px" y="0px"
	 viewBox="0 0 1133.9 1133.9" enable-background="new 0 0 1133.9 1133.9" xml:space="preserve">
<path id="background" fill="#F04141" d="M566.9,0C253.8,0,0,253.8,0,566.9s253.8,566.9,566.9,566.9s566.9-253.8,566.9-566.9
	S880,0,566.9,0z M842.3,651.4L566.9,895.7L291.5,651.4c-73.8-73.8-73.8-193.5,0-267.3s193.5-73.8,267.3,0c2.8,2.8,5.5,5.7,8.1,8.7
	c2.6-2.9,5.3-5.9,8.1-8.7c73.8-73.8,193.5-73.8,267.3,0S916.1,577.6,842.3,651.4z"/>
<linearGradient id="shadow_1_" gradientUnits="userSpaceOnUse" x1="992.3978" y1="190.6622" x2="496.7" y2="686.36" gradientTransform="matrix(1 0 0 -1 0 1133.8199)">
	<stop  offset="0" style="stop-color:#2C323E;stop-opacity:0"/>
	<stop  offset="1" style="stop-color:#2C323E;stop-opacity:0.3"/>
</linearGradient>
<path id="shadow" fill="url(#shadow_1_)" d="M1125.1,666.9L842.3,384.1c73.8,73.8,73.9,193.5,0,267.3L566.9,895.7L292.2,652
	l453.2,453.2C940.3,1040.6,1088.4,873,1125.1,666.9z"/>
<path id="symbol_1_" display="none" fill="#FFFFFF" d="M842.3,651.4L566.9,895.7L291.5,651.4c-73.8-73.8-73.8-193.5,0-267.3
	s193.5-73.8,267.3,0c2.8,2.8,5.5,5.7,8.1,8.7c2.6-2.9,5.3-5.9,8.1-8.7c73.8-73.8,193.5-73.8,267.3,0S916.1,577.6,842.3,651.4z"/>
</svg>
