<?xml version="1.0" encoding="utf-8"?>
<!-- Generator: Adobe Illustrator 18.0.0, SVG Export Plug-In . SVG Version: 6.00 Build 0)  -->
<svg version="1.1" id="microphone-muted" xmlns="http://www.w3.org/2000/svg" xmlns:xlink="http://www.w3.org/1999/xlink" x="0px"
	 y="0px" viewBox="0 0 800 800" enable-background="new 0 0 800 800" xml:space="preserve">
<g id="mic">
	<path id="background" d="M727.3,800H72.7C32.7,800,0,767.3,0,727.3V72.7C0,32.7,32.7,0,72.7,0h654.5c40,0,72.7,32.7,72.7,72.7
		v654.5C800,767.3,767.3,800,727.3,800z"/>
	<path fill="#FFFFFF" d="M700,306.3c0-93-75.6-168.8-168.8-168.8c-53,0-100.3,24.4-131.3,62.7c-30.9-38.2-78.2-62.7-131.3-62.7
		c-93.2,0-168.7,75-168.7,168.8c0,131.3,300,356.3,300,356.3S700,437.6,700,306.3z"/>
</g>
<g id="stroke" display="none">
	
		<rect x="395.7" y="69.3" transform="matrix(-0.7071 -0.7071 0.7071 -0.7071 416.7709 1000.6386)" display="inline" width="39.7" height="689.4"/>
	
		<rect x="333.7" y="27.2" transform="matrix(-0.7071 -0.7071 0.7071 -0.7071 374.5721 898.9445)" display="inline" fill="#FFFFFF" width="79.6" height="689.4"/>
</g>
</svg>
