<?xml version="1.0" encoding="utf-8"?>
<!-- Generator: Adobe Illustrator 18.1.1, SVG Export Plug-In . SVG Version: 6.00 Build 0)  -->
<svg version="1.1" id="config_x5F_plugin_1_" xmlns="http://www.w3.org/2000/svg" xmlns:xlink="http://www.w3.org/1999/xlink"
	 x="0px" y="0px" viewBox="0 0 1133.9 1133.9" enable-background="new 0 0 1133.9 1133.9" xml:space="preserve">
<path id="config_x5F_plugin" fill="#536480" stroke="#536480" stroke-miterlimit="10" d="M566.9,0C253.8,0,0,253.8,0,566.9
	s253.8,566.9,566.9,566.9s566.9-253.8,566.9-566.9S880,0,566.9,0z M566.9,1063c-145.8,0-276.9-62.9-367.6-163h318h99.2h318
	C843.8,1000.1,712.7,1063,566.9,1063z M616.5,800.8V517.3h-99.2v283.5h-388c-29.9-55.9-49.5-118.2-56-184.3h82.6v-99.2H73.3
	c9.9-99.8,49.4-190.8,109.5-264.3l58.4,58.4l70.2-70.2L253,182.8c73.5-60.1,164.6-99.6,264.3-109.5v82.6h99.2V73.3
	c99.8,9.9,190.8,49.4,264.3,109.5l-58.4,58.4l70.2,70.2L951,253c60.1,73.5,99.6,164.6,109.5,264.3H978v99.2h82.6
	c-6.6,66.1-26.1,128.4-56,184.3H616.5z"/>
</svg>
