<?xml version="1.0" encoding="utf-8"?>
<!-- Generator: Adobe Illustrator 18.1.1, SVG Export Plug-In . SVG Version: 6.00 Build 0)  -->
<svg version="1.1" id="Ebene_1" xmlns="http://www.w3.org/2000/svg" xmlns:xlink="http://www.w3.org/1999/xlink" x="0px" y="0px"
	 viewBox="0 0 1133.9 1133.9" enable-background="new 0 0 1133.9 1133.9" xml:space="preserve">
<path fill="#2C323E" d="M113.4,762.6L113.4,762.6c0,56.4,45.7,102.1,102,102l0,0h620.8L694.5,694.3l-361,0.2
	c-27.7-0.5-50-23.1-50-51V340.2h113.4L198.4,99.2L0,340.2h113.4V762.6z M283.5,694.5h0.1H283.5L283.5,694.5z"/>
<path fill="#2C323E" d="M850.4,524.4H737l198.4,240.9l198.4-240.9h-113.4V102l0,0c0-56.3-45.6-102-102-102H297.6l141.7,170.3
	l361-0.2c27.8,0.5,50.1,23.1,50.1,51L850.4,524.4z"/>
</svg>
