<?xml version="1.0" encoding="utf-8"?>
<!-- Generator: Adobe Illustrator 17.0.0, SVG Export Plug-In . SVG Version: 6.00 Build 0)  -->
<!DOCTYPE svg PUBLIC "-//W3C//DTD SVG 1.1//EN" "http://www.w3.org/Graphics/SVG/1.1/DTD/svg11.dtd">
<svg version="1.1" id="Ebene_1" xmlns="http://www.w3.org/2000/svg" xmlns:xlink="http://www.w3.org/1999/xlink" x="0px" y="0px"
	 width="1133.86px" height="1133.86px" viewBox="0 0 1133.86 1133.86" enable-background="new 0 0 1133.86 1133.86"
	 xml:space="preserve">
<path display="none" fill="#EDEDED" d="M1133.858,463.852V0H670.006v327.488H463.852V0H0v463.852h327.488v206.154H0v463.852h463.852
	V809.593h206.154v324.266h463.852V670.006H809.593V463.852H1133.858z M136.364,327.488V136.364h191.125v191.125H136.364V327.488z
	 M327.488,997.495H136.364V806.37h191.125v3.223v187.902H327.488z M997.495,997.495H806.37V809.593h3.223v-3.223h187.902V997.495z
	 M673.229,670.006h-3.223v3.223H463.852v-3.223V463.852h206.154h3.223V670.006z M806.37,327.488V136.364h191.125v191.125H809.593
	h-3.223V327.488z"/>
<path display="none" fill="#878787" d="M1133.86,425.197V0H708.663v297.638H425.197V0H0v425.197h297.638v283.465H0v425.197h425.197
	V836.22h283.465v297.638h425.197V708.661H836.22V425.197H1133.86z M836.222,127.559h170.079v170.079H836.222V127.559z
	 M127.559,297.638V127.559h170.079v170.079H127.559z M297.638,1006.299H127.559V836.22h170.079V1006.299z M1006.299,836.22v170.079
	H836.22V836.22H1006.299z M425.197,708.661V425.197h283.465v283.465L425.197,708.661L425.197,708.661z"/>
<path display="none" fill="#878787" d="M1133.86,481.89V0H651.97v347.244H481.89V0H0v481.89h347.244v170.08H0v481.89h481.89V786.616
	h170.08v347.244h481.89V651.97H786.616V481.89H1133.86z M786.616,134.646h212.598v212.598H786.616V134.646z M134.646,347.244
	V134.646h212.598v212.598L134.646,347.244L134.646,347.244z M347.244,999.214H134.646V786.616h212.598L347.244,999.214
	L347.244,999.214z M999.214,786.616v212.598H786.616V786.616H999.214z M651.97,651.97H481.89V481.89h170.08L651.97,651.97
	L651.97,651.97z"/>
<path display="none" fill="#E2E2E2" d="M673.23,141.733h-42.52v223.228H503.15V141.733h-42.52H141.733V460.63v42.52h223.228v127.56
	H141.733v42.518v318.897v0.001H503.15v-223.23h127.56v223.23h361.417V630.71h-223.23V503.15h223.23v-42.52V141.733H673.23z
	 M768.899,364.961V242.718h122.244v122.244H768.899z M503.15,503.15h127.56v127.56H503.15V503.15z M891.142,891.143H768.897V768.897
	h122.245V891.143z M242.718,364.961V242.718h122.244v122.244H242.718z M242.718,891.143V768.897h122.244v122.245H242.718z"/>
<g display="none">
	<rect x="141.733" y="630.71" display="inline" fill="#4C4648" width="850.394" height="120.472"/>
	<rect x="141.732" y="871.654" display="inline" fill="#4C4648" width="850.394" height="120.472"/>
	<rect x="141.733" y="141.733" display="inline" fill="#4C4648" width="850.394" height="120.472"/>
	<rect x="141.732" y="382.677" display="inline" fill="#4C4648" width="850.394" height="120.472"/>
	<rect x="630.71" y="141.732" display="inline" fill="#4C4648" width="120.472" height="850.394"/>
	<rect x="871.654" y="141.733" display="inline" fill="#4C4648" width="120.472" height="850.394"/>
	<rect x="141.733" y="141.732" display="inline" fill="#4C4648" width="120.472" height="850.394"/>
	<rect x="382.677" y="141.733" display="inline" fill="#4C4648" width="120.472" height="850.394"/>
</g>
<g display="none">
	<rect x="170.079" y="170.079" display="inline" fill="#E2E2E2" width="793.701" height="793.701"/>
	<rect x="283.465" y="170.079" fill="#4C4648" width="113.386" height="793.701"/>
	<rect x="737.008" y="170.079" fill="#4C4648" width="113.386" height="793.701"/>
	<rect x="170.079" y="283.465" fill="#4C4648" width="793.701" height="113.386"/>
	<rect x="170.079" y="737.008" fill="#4C4648" width="793.701" height="113.386"/>
	<path display="inline" fill="#4C4648" d="M510.236,963.78L510.236,963.78V850.394V737.008h113.386v113.386V963.78v0h113.386v0
		h113.386v0H963.78v0V850.394V737.008V623.622v0H850.394v0H737.008V510.236h113.386H963.78V396.85V283.465V170.079H850.394H737.008
		H623.622v113.386V396.85H510.236V283.465V170.079H170.079v340.157H396.85v113.386H170.079l0,340.157H510.236z M283.465,396.85
		V283.465H396.85V396.85H283.465z M396.85,850.394H283.465V737.008H396.85V850.394z M850.394,737.008v113.386H737.008V737.008
		H850.394z M623.622,623.622H510.236V510.236h113.386V623.622z M850.394,396.85H737.008V283.465h113.386V396.85z"/>
</g>
<path fill="#FFFFFF" d="M963.78,510.236V170.079H623.622V396.85H510.236V170.079H170.079v340.157H396.85v113.386H170.079V963.78
	l340.157,0V737.008h113.386V963.78H963.78V623.622H737.008V510.236H963.78z M737.008,283.465h113.386V396.85H737.008V283.465z
	 M396.85,850.394H283.465V737.008H396.85V850.394z M396.85,396.85H283.465V283.465H396.85V396.85z M623.622,623.622H510.236V510.236
	h113.386V623.622z M850.394,737.008v113.386H737.008V737.008H850.394z"/>
<polygon fill="#3D97F2" points="963.78,170.079 963.78,56.693 850.394,56.693 850.394,170.079 737.008,170.079 737.008,283.465 
	850.394,283.465 850.394,396.85 963.78,396.85 963.78,282.752 1077.165,283.465 1077.165,170.079 "/>
</svg>
