<?xml version="1.0" encoding="utf-8"?>
<!-- Generator: Adobe Illustrator 18.0.0, SVG Export Plug-In . SVG Version: 6.00 Build 0)  -->
<svg version="1.1" xmlns="http://www.w3.org/2000/svg" xmlns:xlink="http://www.w3.org/1999/xlink" x="0px" y="0px"
	 viewBox="0 0 1133.9 1133.9" enable-background="new 0 0 1133.9 1133.9" xml:space="preserve">
<g id="Ebene_1" display="none">
	<rect y="850.4" display="inline" fill="#2C323E" width="1133.9" height="283.5"/>
	<rect y="425.2" display="inline" fill="#2C323E" width="1133.9" height="283.5"/>
	<rect display="inline" fill="#2C323E" width="1133.9" height="283.5"/>
</g>
<g id="config">
	<path id="config_1_" fill="#536480" d="M992.1,708.7c78.3,0,141.7-63.5,141.7-141.7s-63.5-141.7-141.7-141.7h-54.4
		c-2.6-6.8-5.4-13.6-8.4-20.2l38.5-38.5c55.3-55.3,55.3-145.1,0-200.4c-55.3-55.3-145.1-55.3-200.4,0l-38.5,38.5
		c-6.6-3-13.4-5.8-20.2-8.4v-54.4C708.7,63.5,645.2,0,566.9,0S425.2,63.5,425.2,141.7v54.4c-6.8,2.6-13.6,5.4-20.2,8.4l-38.5-38.5
		c-55.3-55.3-145.1-55.3-200.4,0c-55.3,55.3-55.3,145.1,0,200.4l38.5,38.5c-3,6.6-5.8,13.4-8.4,20.2h-54.4
		C63.5,425.2,0,488.7,0,566.9s63.5,141.7,141.7,141.7h54.4c2.6,6.8,5.4,13.6,8.4,20.2L166,767.4c-55.3,55.3-55.3,145.1,0,200.4
		c55.3,55.3,145.1,55.3,200.4,0l38.5-38.5c6.6,3,13.4,5.8,20.2,8.4v54.4c0,78.3,63.5,141.7,141.7,141.7s141.7-63.5,141.7-141.7
		v-54.4c6.8-2.6,13.6-5.4,20.2-8.4l38.5,38.5c55.3,55.3,145.1,55.3,200.4,0c55.3-55.3,55.3-145.1,0-200.4l-38.5-38.5
		c3-6.6,5.8-13.4,8.4-20.2H992.1z M566.9,793.7c-125.2,0-226.8-101.5-226.8-226.8s101.5-226.8,226.8-226.8s226.8,101.5,226.8,226.8
		S692.2,793.7,566.9,793.7z"/>
</g>
</svg>
