<?xml version="1.0" encoding="utf-8"?>
<!-- Generator: Adobe Illustrator 18.1.1, SVG Export Plug-In . SVG Version: 6.00 Build 0)  -->
<svg version="1.1" id="Ebene_1" xmlns="http://www.w3.org/2000/svg" xmlns:xlink="http://www.w3.org/1999/xlink" x="0px" y="0px"
	 viewBox="0 0 1133.9 1133.9" enable-background="new 0 0 1133.9 1133.9" xml:space="preserve">
<path display="none" fill="#EDEDED" d="M1133.9,463.9V0H670v327.5H463.9V0H0v463.9h327.5V670H0v463.9h463.9V809.6H670v324.3h463.9
	V670H809.6V463.9H1133.9z M136.4,327.5V136.4h191.1v191.1L136.4,327.5L136.4,327.5z M327.5,997.5H136.4V806.4h191.1v3.2L327.5,997.5
	L327.5,997.5z M997.5,997.5H806.4V809.6h3.2v-3.2h187.9V997.5z M673.2,670H670v3.2H463.9V670V463.9H670h3.2V670z M806.4,327.5V136.4
	h191.1v191.1H809.6L806.4,327.5L806.4,327.5z"/>
<path display="none" fill="#878787" d="M1133.9,425.2V0H708.7v297.6H425.2V0H0v425.2h297.6v283.5H0v425.2h425.2V836.2h283.5v297.6
	h425.2V708.7H836.2V425.2H1133.9z M836.2,127.6h170.1v170.1H836.2V127.6z M127.6,297.6V127.6h170.1v170.1H127.6z M297.6,1006.3
	H127.6V836.2h170.1V1006.3z M1006.3,836.2v170.1H836.2V836.2H1006.3z M425.2,708.7V425.2h283.5v283.5L425.2,708.7L425.2,708.7z"/>
<path display="none" fill="#878787" d="M1133.9,481.9V0H652v347.2H481.9V0H0v481.9h347.2V652H0v481.9h481.9V786.6H652v347.2h481.9
	V652H786.6V481.9H1133.9z M786.6,134.6h212.6v212.6H786.6V134.6z M134.6,347.2V134.6h212.6v212.6L134.6,347.2L134.6,347.2z
	 M347.2,999.2H134.6V786.6h212.6L347.2,999.2L347.2,999.2z M999.2,786.6v212.6H786.6V786.6H999.2z M652,652H481.9V481.9H652L652,652
	L652,652z"/>
<path display="none" fill="#E2E2E2" d="M673.2,141.7h-42.5V365H503.1V141.7h-42.5H141.7v318.9v42.5H365v127.6H141.7v42.5v318.9v0
	h361.4V768.9h127.6v223.2h361.4V630.7H768.9V503.1h223.2v-42.5V141.7H673.2z M768.9,365V242.7h122.2V365L768.9,365L768.9,365z
	 M503.1,503.1h127.6v127.6H503.1V503.1z M891.1,891.1H768.9V768.9h122.2L891.1,891.1L891.1,891.1z M242.7,365V242.7H365V365
	L242.7,365L242.7,365z M242.7,891.1V768.9H365v122.2L242.7,891.1L242.7,891.1z"/>
<g display="none">
	<rect x="141.7" y="630.7" display="inline" fill="#4C4648" width="850.4" height="120.5"/>
	<rect x="141.7" y="871.7" display="inline" fill="#4C4648" width="850.4" height="120.5"/>
	<rect x="141.7" y="141.7" display="inline" fill="#4C4648" width="850.4" height="120.5"/>
	<rect x="141.7" y="382.7" display="inline" fill="#4C4648" width="850.4" height="120.5"/>
	<rect x="630.7" y="141.7" display="inline" fill="#4C4648" width="120.5" height="850.4"/>
	<rect x="871.7" y="141.7" display="inline" fill="#4C4648" width="120.5" height="850.4"/>
	<rect x="141.7" y="141.7" display="inline" fill="#4C4648" width="120.5" height="850.4"/>
	<rect x="382.7" y="141.7" display="inline" fill="#4C4648" width="120.5" height="850.4"/>
</g>
<g display="none">
	<rect x="170.1" y="170.1" display="inline" fill="#E2E2E2" width="793.7" height="793.7"/>
	<rect x="283.5" y="170.1" display="inline" fill="#4C4648" width="113.4" height="793.7"/>
	<rect x="737" y="170.1" display="inline" fill="#4C4648" width="113.4" height="793.7"/>
	<rect x="170.1" y="283.5" display="inline" fill="#4C4648" width="793.7" height="113.4"/>
	<rect x="170.1" y="737" display="inline" fill="#4C4648" width="793.7" height="113.4"/>
	<path display="inline" fill="#4C4648" d="M510.2,963.8L510.2,963.8V850.4V737h113.4v113.4v113.4l0,0H737l0,0h113.4l0,0h113.4l0,0
		V850.4V737V623.6l0,0H850.4l0,0H737V510.2h113.4h113.4V396.9V283.5V170.1H850.4H737H623.6v113.4v113.4H510.2V283.5V170.1H170.1
		v340.2h226.8v113.4H170.1v340.2L510.2,963.8L510.2,963.8z M283.5,396.9V283.5h113.4v113.4H283.5z M396.9,850.4H283.5V737h113.4
		V850.4z M850.4,737v113.4H737V737H850.4z M623.6,623.6H510.2V510.2h113.4V623.6z M850.4,396.9H737V283.5h113.4V396.9z"/>
</g>
<path fill="#2C323E" d="M963.8,510.2V170.1H623.6v226.8H510.2V170.1H170.1v340.2h226.8v113.4H170.1v340.2h340.2V737h113.4v226.8
	h340.2V623.6H737V510.2H963.8z M737,283.5h113.4v113.4H737V283.5z M396.9,850.4H283.5V737h113.4V850.4z M396.9,396.9H283.5V283.5
	h113.4V396.9z M623.6,623.6H510.2V510.2h113.4V623.6z M850.4,737v113.4H737V737H850.4z"/>
<polygon display="none" fill="#3D97F2" points="963.8,170.1 963.8,56.7 850.4,56.7 850.4,170.1 737,170.1 737,283.5 850.4,283.5 
	850.4,396.9 963.8,396.9 963.8,282.8 1077.2,283.5 1077.2,170.1 "/>
</svg>
