<?xml version="1.0" encoding="utf-8"?>
<!-- Generator: Adobe Illustrator 18.0.0, SVG Export Plug-In . SVG Version: 6.00 Build 0)  -->
<svg version="1.1" id="config_1_" xmlns="http://www.w3.org/2000/svg" xmlns:xlink="http://www.w3.org/1999/xlink" x="0px" y="0px"
	 viewBox="0 0 1133.9 1133.9" enable-background="new 0 0 1133.9 1133.9" xml:space="preserve">
<path id="config" fill="#536480" d="M1100.5,425.2H990.8c-13.6,0-25.7-8.2-30.9-20.8c-0.1-0.2-0.1-0.3-0.2-0.5
	c-5.2-12.5-2.5-27,7.1-36.6l77.5-77.5c13-13,13-34.1,0-47.2L891.2,89.4c-13-13-34.1-13-47.2,0L766.5,167c-9.6,9.6-24,12.3-36.6,7.1
	c-0.2-0.1-0.3-0.1-0.5-0.2c-12.5-5.2-20.8-17.3-20.8-30.9V33.3c0-18.4-14.9-33.3-33.3-33.3H458.5c-18.4,0-33.3,14.9-33.3,33.3V143
	c0,13.6-8.2,25.7-20.8,30.9c-0.1,0.1-0.3,0.1-0.4,0.2c-12.5,5.2-27,2.5-36.6-7.1l-77.6-77.6c-13-13-34.1-13-47.2,0L89.4,242.7
	c-13,13-13,34.1,0,47.2l77.5,77.5c9.6,9.6,12.3,24,7.1,36.6c-0.1,0.2-0.1,0.3-0.2,0.5c-5.2,12.5-17.3,20.8-30.9,20.8H33.3
	C14.9,425.1,0,440.1,0,458.5v216.8c0,18.4,14.9,33.3,33.3,33.3H143c13.6,0,25.7,8.2,30.9,20.8c0.1,0.2,0.1,0.3,0.2,0.5
	c5.2,12.5,2.5,27-7.1,36.6L89.4,844c-13,13-13,34.1,0,47.2l153.3,153.3c13,13,34.1,13,47.2,0l77.5-77.5c9.6-9.6,24-12.3,36.6-7.1
	c0.2,0.1,0.3,0.1,0.5,0.2c12.5,5.2,20.8,17.3,20.8,30.9v109.7c0,18.4,14.9,33.3,33.3,33.3h216.8c18.4,0,33.3-14.9,33.3-33.3V990.8
	c0-13.6,8.2-25.7,20.8-30.9c0.2-0.1,0.3-0.1,0.5-0.2c12.5-5.2,27-2.5,36.6,7.1l77.5,77.5c13,13,34.1,13,47.2,0l153.3-153.3
	c13-13,13-34.1,0-47.2l-77.5-77.5c-9.6-9.6-12.3-24-7.1-36.6c0.1-0.2,0.1-0.3,0.2-0.5c5.2-12.5,17.3-20.8,30.9-20.8h109.7
	c18.4,0,33.3-14.9,33.3-33.3V458.5C1133.9,440.1,1118.9,425.2,1100.5,425.2z M566.9,793.7c-125.2,0-226.8-101.5-226.8-226.8
	s101.5-226.8,226.8-226.8s226.8,101.5,226.8,226.8S692.2,793.7,566.9,793.7z"/>
<linearGradient id="shadow_2_" gradientUnits="userSpaceOnUse" x1="967.8294" y1="967.7876" x2="566.95" y2="566.9082">
	<stop  offset="0" style="stop-color:#2C323E;stop-opacity:0"/>
	<stop  offset="1" style="stop-color:#2C323E;stop-opacity:0.3"/>
</linearGradient>
<path id="shadow" fill="url(#shadow_2_)" d="M708.7,990.8c0-13.6,8.2-25.7,20.8-30.9c0.2-0.1,0.3-0.1,0.5-0.2
	c12.5-5.2,27-2.5,36.6,7.1l77.5,77.5c13,13,34.1,13,47.2,0l153.3-153.3c13-13,13-34.1,0-47.2l-77.5-77.5c-9.6-9.6-12.3-24-7.1-36.6
	c0.1-0.2,0.1-0.3,0.2-0.5c5.2-12.5,17.3-20.8,30.9-20.8h38.6L727.3,406.6c88.6,88.6,88.6,232.1,0,320.7c-87.9,87.9-230,88.5-318.7,2
	l300.1,300.1V990.8z"/>
<circle id="circle" fill="#FFFFFF" cx="566.9" cy="566.9" r="226.8"/>
</svg>
