<?xml version="1.0" encoding="utf-8"?>
<!-- Generator: Adobe Illustrator 18.1.1, SVG Export Plug-In . SVG Version: 6.00 Build 0)  -->
<svg version="1.1" id="Ebene_1" xmlns="http://www.w3.org/2000/svg" xmlns:xlink="http://www.w3.org/1999/xlink" x="0px" y="0px"
	 viewBox="0 0 1133.9 1133.9" enable-background="new 0 0 1133.9 1133.9" xml:space="preserve">
<path fill="#2C323E" d="M655.9,100v372.4V531l51.1,28.6l235.6,132c27.2,15.9,50,38.6,66,65.7c16.5,28,25.2,60.2,25.2,93
	c0,49-19.1,95.1-53.7,129.7c-34.7,34.7-80.7,53.7-129.7,53.7H283.5c-49,0-95.1-19.1-129.7-53.7c-34.7-34.7-53.7-80.7-53.7-129.7
	c0-32.8,8.7-64.9,25.2-93c16-27.1,38.8-49.9,66-65.7l235.6-132L478,531v-58.6V100H655.9 M793.7,0H340.2v94.5H378v378L141.7,604.9
	C57,653.9,0,745.5,0,850.4c0,156.6,126.9,283.5,283.5,283.5h566.9c156.6,0,283.5-126.9,283.5-283.5c0-104.9-57-196.5-141.7-245.5
	L755.9,472.4v-378h37.8V0L793.7,0z"/>
<rect x="141.7" y="538.8" display="none" fill="#FFFFFF" stroke="#1D1D1B" stroke-miterlimit="10" width="106.3" height="240.7"/>
<rect x="885.8" y="505.1" display="none" fill="#FFFFFF" stroke="#1D1D1B" stroke-miterlimit="10" width="106.3" height="274.5"/>
<polygon fill="#2C323E" points="1013.4,1079.6 120.5,1079.6 67.6,843.1 120.5,720.4 1013.4,720.4 1072.6,840.1 "/>
</svg>
