<?xml version="1.0" encoding="utf-8"?>
<!-- Generator: Adobe Illustrator 18.0.0, SVG Export Plug-In . SVG Version: 6.00 Build 0)  -->
<svg version="1.1" id="Ebene_1" xmlns="http://www.w3.org/2000/svg" xmlns:xlink="http://www.w3.org/1999/xlink" x="0px" y="0px"
	 viewBox="0 0 1133.9 1133.9" enable-background="new 0 0 1133.9 1133.9" xml:space="preserve">
<path id="base" fill="#536480" d="M1032.3,164.4H101.7c-37.3,0-56.3,44.9-30.2,71.5c0.2,0.2,0.4,0.4,0.6,0.6L365.7,530
	c7.9,7.9,12.3,18.6,12.3,29.8v301c0,32.4,15.2,61.3,38.8,80c3.8,3,7.9,5.8,12.2,8.3l0,0l264.2,149.2c28.1,15.9,62.8-4.4,62.8-36.7
	V559.8c0-11.2,4.4-21.9,12.3-29.8l293.6-293.6c0.2-0.2,0.5-0.5,0.7-0.7C1088.5,209.1,1069.5,164.4,1032.3,164.4z"/>
<path id="add" fill="#536480" d="M45.7,1027.8L45.7,1027.8c16.6,16.6,43.5,16.6,60.1,0l922-922c16.6-16.6,16.6-43.5,0-60.1l0,0
	c-16.6-16.6-43.5-16.6-60.1,0l-922,922C29.2,984.3,29.2,1011.2,45.7,1027.8z"/>
<path id="subtract" fill="#F04141" d="M104.6,1089.3L104.6,1089.3c16.6,16.6,43.5,16.6,60.1,0l922-922c16.6-16.6,16.6-43.5,0-60.1
	l0,0c-16.6-16.6-43.5-16.6-60.1,0l-922,922C88,1045.7,88,1072.7,104.6,1089.3z"/>
</svg>
