<?xml version="1.0" encoding="utf-8"?>
<!-- Generator: Adobe Illustrator 18.0.0, SVG Export Plug-In . SVG Version: 6.00 Build 0)  -->
<svg version="1.1" xmlns="http://www.w3.org/2000/svg" xmlns:xlink="http://www.w3.org/1999/xlink" x="0px" y="0px"
	 viewBox="0 0 1200 1200" enable-background="new 0 0 1200 1200" xml:space="preserve">
<g id="grid">
	<g id="tilt_x5F_down">
	</g>
	<g id="tilt_x5F_up">
	</g>
	<g id="vertical">
	</g>
	<g id="horizontal">
	</g>
</g>
<g id="Ebene_6">
	<path d="M1050,1150H150c-55,0-100-45-100-100V150C50,95,95,50,150,50h900c55,0,100,45,100,100v900C1150,1105,1105,1150,1050,1150z"
		/>
	<g id="Ebene_7">
		<line fill="none" stroke="#FFFFFF" stroke-width="100" stroke-miterlimit="10" x1="500" y1="900" x2="200" y2="900"/>
		<line fill="none" stroke="#FFFFFF" stroke-width="100" stroke-miterlimit="10" x1="1000" y1="900" x2="700" y2="900"/>
		<circle fill="none" stroke="#FFFFFF" stroke-width="100" stroke-miterlimit="10" cx="600" cy="900" r="100"/>
	</g>
	<g>
		<path fill="#FFFFFF" d="M900,300v300H300V300H900 M900,200H300c-55.2,0-100,44.8-100,100v300c0,55.2,44.8,100,100,100h600
			c55.2,0,100-44.8,100-100V300C1000,244.8,955.2,200,900,200L900,200z"/>
	</g>
</g>
</svg>
