<?xml version="1.0" encoding="utf-8"?>
<!-- Generator: Adobe Illustrator 18.0.0, SVG Export Plug-In . SVG Version: 6.00 Build 0)  -->
<svg version="1.1" id="server" xmlns="http://www.w3.org/2000/svg" xmlns:xlink="http://www.w3.org/1999/xlink" x="0px" y="0px"
	 viewBox="0 0 800 800" enable-background="new 0 0 800 800" xml:space="preserve">
<path id="_x33__1_" fill="#4A4F65" d="M400,600h300c55.2,0,100,44.8,100,100l0,0c0,55.2-44.8,100-100,100H400
	c-55.2,0-100-44.8-100-100l0,0C300,644.7,344.7,600,400,600z"/>
<path id="_x32__1_" fill="#4A4F65" d="M400,300h300c55.2,0,100,44.8,100,100l0,0c0,55.2-44.8,100-100,100H400
	c-55.2,0-100-44.8-100-100l0,0C300,344.7,344.7,300,400,300z"/>
<path id="_x31__1_" fill="#4A4F65" d="M400,0h300c55.2,0,100,44.8,100,100l0,0c0,55.2-44.8,100-100,100H400
	c-55.2,0-100-44.8-100-100l0,0C300,44.8,344.7,0,400,0z"/>
<path id="_x33_" fill="#4A4F65" d="M100,600L100,600c55.2,0,100,44.8,100,100l0,0c0,55.2-44.8,100-100,100l0,0
	C44.8,800,0,755.2,0,700l0,0C0,644.7,44.8,600,100,600z"/>
<path id="_x32_" fill="#4A4F65" d="M100,300L100,300c55.2,0,100,44.8,100,100l0,0c0,55.2-44.8,100-100,100l0,0
	C44.8,500,0,455.2,0,400l0,0C0,344.7,44.8,300,100,300z"/>
<path id="_x31_" fill="#4A4F65" d="M100,0L100,0c55.2,0,100,44.8,100,100l0,0c0,55.2-44.8,100-100,100l0,0C44.8,200,0,155.2,0,100
	l0,0C0,44.8,44.8,0,100,0z"/>
</svg>
