<?xml version="1.0" encoding="utf-8"?>
<!-- Generator: Adobe Illustrator 18.0.0, SVG Export Plug-In . SVG Version: 6.00 Build 0)  -->
<svg version="1.1" id="server" xmlns="http://www.w3.org/2000/svg" xmlns:xlink="http://www.w3.org/1999/xlink" x="0px" y="0px"
	 viewBox="0 0 1133.9 1133.9" enable-background="new 0 0 1133.9 1133.9" xml:space="preserve">
<path id="_x33__1_" fill="#8392A9" d="M566.9,850.4h425.2c78.3,0,141.7,63.5,141.7,141.7l0,0c0,78.3-63.5,141.7-141.7,141.7H566.9
	c-78.3,0-141.7-63.5-141.7-141.7l0,0C425.2,913.8,488.6,850.4,566.9,850.4z"/>
<path id="_x32__1_" fill="#8392A9" d="M566.9,425.2h425.2c78.3,0,141.7,63.5,141.7,141.7l0,0c0,78.3-63.5,141.7-141.7,141.7H566.9
	c-78.3,0-141.7-63.5-141.7-141.7l0,0C425.2,488.6,488.6,425.2,566.9,425.2z"/>
<path id="_x31__1_" fill="#8392A9" d="M566.9,0h425.2c78.3,0,141.7,63.5,141.7,141.7l0,0c0,78.3-63.5,141.7-141.7,141.7H566.9
	c-78.3,0-141.7-63.5-141.7-141.7l0,0C425.2,63.5,488.6,0,566.9,0z"/>
<path id="_x33_" fill="#8392A9" d="M141.7,850.4L141.7,850.4c78.3,0,141.7,63.5,141.7,141.7l0,0c0,78.3-63.5,141.7-141.7,141.7l0,0
	C63.5,1133.9,0,1070.4,0,992.1l0,0C0,913.8,63.5,850.4,141.7,850.4z"/>
<path id="_x32_" fill="#8392A9" d="M141.7,425.2L141.7,425.2c78.3,0,141.7,63.5,141.7,141.7l0,0c0,78.3-63.5,141.7-141.7,141.7l0,0
	C63.5,708.7,0,645.2,0,566.9l0,0C0,488.6,63.5,425.2,141.7,425.2z"/>
<path id="_x31_" fill="#8392A9" d="M141.7,0L141.7,0C220,0,283.5,63.5,283.5,141.7l0,0c0,78.3-63.5,141.7-141.7,141.7l0,0
	C63.5,283.5,0,220,0,141.7l0,0C0,63.5,63.5,0,141.7,0z"/>
</svg>
