<?xml version="1.0" encoding="utf-8"?>
<!-- Generator: Adobe Illustrator 18.0.0, SVG Export Plug-In . SVG Version: 6.00 Build 0)  -->
<svg version="1.1" id="shortcuts" xmlns="http://www.w3.org/2000/svg" xmlns:xlink="http://www.w3.org/1999/xlink" x="0px" y="0px"
	 viewBox="0 0 1133.9 1133.9" enable-background="new 0 0 1133.9 1133.9" xml:space="preserve">
<path id="symbol" fill="#8392A9" d="M1133.7,440.4v-395c0-25-20.3-45.4-45.4-45.4H693.1c-25,0-45.4,20.3-45.4,45.4v233.3
	c0,25-20.3,45.4-45.4,45.4H531c-25,0-45.4-20.3-45.4-45.4V45.4c0-25-20.3-45.4-45.4-45.4H45.4C20.3,0,0,20.3,0,45.4v395.2
	c0,25,20.3,45.4,45.4,45.4h233.3c25,0,45.4,20.3,45.4,45.4v71.3c0,25-20.3,45.4-45.4,45.4H45.4c-25,0-45.4,20.3-45.4,45.4v395.2
	c0,25,20.3,45.4,45.4,45.4h395.2c25,0,45.4-20.3,45.4-45.4V855.1c0-25,20.3-45.4,45.4-45.4h71.3c25,0,45.4,20.3,45.4,45.4v233.3
	c0,25,20.3,45.4,45.4,45.4h395.2c25,0,45.4-20.3,45.4-45.4V693.1c0-25-20.3-45.4-45.4-45.4H855.1c-25,0-45.4-20.3-45.4-45.4V531
	c0-25,20.3-45.4,45.4-45.4h233.3C1113.4,485.8,1133.7,465.5,1133.7,440.4z M855.1,162h71.3c25,0,45.4,20.3,45.4,45.4v71.3
	c0,25-20.3,45.4-45.4,45.4h-71.3c-25,0-45.4-20.3-45.4-45.4v-71.3C809.8,182.3,830.1,162,855.1,162z M278.6,971.7h-71.3
	c-25,0-45.4-20.3-45.4-45.4V855c0-25,20.3-45.4,45.4-45.4h71.3c25,0,45.4,20.3,45.4,45.4v71.3C324,951.4,303.7,971.7,278.6,971.7z
	 M278.6,324h-71.3c-25,0-45.4-20.3-45.4-45.4v-71.3c0-25,20.3-45.4,45.4-45.4h71.3c25,0,45.4,20.3,45.4,45.4v71.3
	C324,303.7,303.7,324,278.6,324z M602.4,647.8h-71.3c-25,0-45.4-20.3-45.4-45.4v-71.3c0-25,20.3-45.4,45.4-45.4h71.3
	c25,0,45.4,20.3,45.4,45.4v71.3C647.8,627.5,627.5,647.8,602.4,647.8z M971.7,855.1v71.3c0,25-20.3,45.4-45.4,45.4H855
	c-25,0-45.4-20.3-45.4-45.4v-71.3c0-25,20.3-45.4,45.4-45.4h71.3C951.4,809.8,971.7,830.1,971.7,855.1z"/>
</svg>
