<?xml version="1.0" encoding="utf-8"?>
<!-- Generator: Adobe Illustrator 18.0.0, SVG Export Plug-In . SVG Version: 6.00 Build 0)  -->
<svg version="1.1" id="config_1_" xmlns="http://www.w3.org/2000/svg" xmlns:xlink="http://www.w3.org/1999/xlink" x="0px" y="0px"
	 viewBox="0 0 800 800" enable-background="new 0 0 800 800" xml:space="preserve">
<path id="gear" fill="#4A4F65" d="M776.4,300H699c-9.6,0-18.1-5.8-21.8-14.7c-0.1-0.1-0.1-0.2-0.1-0.4c-3.7-8.8-1.8-19,5-25.8
	l54.7-54.7c9.2-9.2,9.2-24.1,0-33.3L628.8,63c-9.2-9.2-24.1-9.2-33.3,0l-54.7,54.7c-6.8,6.8-16.9,8.7-25.8,5
	c-0.1-0.1-0.2-0.1-0.4-0.1c-8.8-3.7-14.7-12.2-14.7-21.8V23.5c0-13-10.5-23.5-23.5-23.5h-153c-13,0-23.5,10.5-23.5,23.5v77.4
	c0,9.6-5.8,18.1-14.7,21.8c-0.1,0.1-0.2,0.1-0.3,0.1c-8.8,3.7-19,1.8-25.8-5l-54.7-54.7c-9.2-9.2-24.1-9.2-33.3,0l-108,108.1
	c-9.2,9.2-9.2,24.1,0,33.3l54.7,54.7c6.8,6.8,8.7,16.9,5,25.8c-0.1,0.1-0.1,0.2-0.1,0.4c-3.7,8.8-12.2,14.7-21.8,14.7H23.5
	C10.5,299.9,0,310.5,0,323.5v153c0,13,10.5,23.5,23.5,23.5h77.4c9.6,0,18.1,5.8,21.8,14.7c0.1,0.1,0.1,0.2,0.1,0.4
	c3.7,8.8,1.8,19-5,25.8l-54.7,54.7c-9.2,9.2-9.2,24.1,0,33.3l108.2,108.2c9.2,9.2,24.1,9.2,33.3,0l54.7-54.7
	c6.8-6.8,16.9-8.7,25.8-5c0.1,0.1,0.2,0.1,0.4,0.1c8.8,3.7,14.7,12.2,14.7,21.8v77.4c0,13,10.5,23.5,23.5,23.5h153
	c13,0,23.5-10.5,23.5-23.5V699c0-9.6,5.8-18.1,14.7-21.8c0.1-0.1,0.2-0.1,0.4-0.1c8.8-3.7,19-1.8,25.8,5l54.7,54.7
	c9.2,9.2,24.1,9.2,33.3,0L737,628.6c9.2-9.2,9.2-24.1,0-33.3l-54.7-54.7c-6.8-6.8-8.7-16.9-5-25.8c0.1-0.1,0.1-0.2,0.1-0.4
	c3.7-8.8,12.2-14.7,21.8-14.7h77.4c13,0,23.5-10.5,23.5-23.5V323.5C800,310.5,789.4,300,776.4,300z M400,560c-1.4,0-2.8,0-4.2-0.1
	c-69.9-1.8-128.7-48.4-148.6-112.2c0-0.1-0.1-0.1-0.1-0.2c-0.3-1-0.6-1.9-0.8-2.9c-0.1-0.3-0.2-0.6-0.3-0.9
	c-0.2-0.8-0.4-1.6-0.6-2.3c-0.1-0.5-0.3-1-0.4-1.6c-0.1-0.6-0.4-1.3-0.5-2c-0.1-0.6-0.3-1.3-0.5-1.9c-0.1-0.5-0.2-1.1-0.4-1.6
	c-0.1-0.8-0.4-1.6-0.5-2.3c-0.1-0.4-0.1-0.7-0.2-1.1c-0.2-0.9-0.4-1.9-0.6-2.8c-0.1-0.4-0.1-0.8-0.2-1.2c-0.1-0.9-0.4-1.8-0.5-2.8
	c-0.1-0.4-0.1-0.8-0.1-1.2c-0.1-0.9-0.3-1.8-0.4-2.8c-0.1-0.6-0.1-1.1-0.2-1.8c-0.1-0.8-0.2-1.6-0.3-2.3c-0.1-0.5-0.1-0.9-0.1-1.4
	c-0.1-0.8-0.1-1.8-0.2-2.7c-0.1-0.5-0.1-0.9-0.1-1.4c-0.1-0.9-0.1-1.8-0.1-2.7c0-0.5-0.1-1-0.1-1.6c-0.1-2.3-0.1-4.4-0.1-6.7
	c0-88.4,71.6-160,160-160s160,71.6,160,160S488.4,560,400,560z"/>
<linearGradient id="shadow_1_" gradientUnits="userSpaceOnUse" x1="968.0015" y1="166.045" x2="567.08" y2="566.9664" gradientTransform="matrix(0.7055 0 0 -0.7055 0 799.9198)">
	<stop  offset="0" style="stop-color:#2C323E;stop-opacity:0"/>
	<stop  offset="1" style="stop-color:#2C323E;stop-opacity:0.3"/>
</linearGradient>
<path id="shadow" display="none" fill="url(#shadow_1_)" d="M500,699c0-9.6,5.8-18.1,14.7-21.8c0.1-0.1,0.2-0.1,0.4-0.1
	c8.8-3.7,19-1.8,25.8,5l54.7,54.7c9.2,9.2,24.1,9.2,33.3,0L737,628.6c9.2-9.2,9.2-24.1,0-33.3l-54.7-54.7c-6.8-6.8-8.7-16.9-5-25.8
	c0.1-0.1,0.1-0.2,0.1-0.4c3.7-8.8,12.2-14.7,21.8-14.7h27.2L513.1,286.9c62.5,62.5,62.5,163.8,0,226.3c-62,62-162.3,62.4-224.9,1.4
	L500,726.3V699L500,699z"/>
</svg>
