<?xml version="1.0" encoding="utf-8"?>
<!-- Generator: Adobe Illustrator 18.0.0, SVG Export Plug-In . SVG Version: 6.00 Build 0)  -->
<svg version="1.1" id="ui" xmlns="http://www.w3.org/2000/svg" xmlns:xlink="http://www.w3.org/1999/xlink" x="0px" y="0px"
	 viewBox="0 0 1133.9 1133.9" enable-background="new 0 0 1133.9 1133.9" xml:space="preserve">
<path id="brush" fill="#8392A9" d="M924.8,377.9H720V102C720,45.6,674.3,0,618,0H516c-56.4,0-102,45.7-102,102v275.9H209.1
	c-56.1,0.4-101.4,45.9-101.4,102v653.9h918.4V479.9C1026.2,423.8,980.9,378.3,924.8,377.9z M311.8,1031.8H209.7V806.8h102v224.9
	H311.8z M209.7,704.8v-174c0-26.8,20.6-48.7,46.8-50.8h259.3V153l0,0c0-28.2,22.8-51,51-51l0,0l0,0l0,0c28.2,0,51,22.8,51,51l0,0
	v326.9h259.3c26.2,2.1,46.8,24.1,46.8,50.8v174L209.7,704.8L209.7,704.8z"/>
</svg>
