<?xml version="1.0" encoding="utf-8"?>
<!-- Generator: Adobe Illustrator 18.0.0, SVG Export Plug-In . SVG Version: 6.00 Build 0)  -->
<svg version="1.1" id="comment" xmlns="http://www.w3.org/2000/svg" xmlns:xlink="http://www.w3.org/1999/xlink" x="0px" y="0px"
	 viewBox="0 0 800 800" enable-background="new 0 0 800 800" xml:space="preserve">
<path id="comment_1_" fill="#8392A9" d="M712.4,85.8h-625c-20.7,0-37.5,16.8-37.5,37.5v450c0,20.7,16.8,37.5,37.5,37.5H441
	c5.8,0,11.6,1.3,16.8,4l137.9,69c25,12.5,54.3-5.7,54.3-33.5v-1.8c0-20.7,16.8-37.5,37.5-37.5h25c20.7,0,37.5-16.8,37.5-37.5V123.3
	C750,102.6,733.2,85.8,712.4,85.8z M512.4,460.9h-225c-20.7,0-37.5-16.8-37.5-37.5l0,0c0-20.7,16.8-37.5,37.5-37.5h225
	c20.7,0,37.5,16.8,37.5,37.5l0,0C550,444.1,533.2,460.9,512.4,460.9z M512.4,310.8h-225c-20.7,0-37.5-16.8-37.5-37.5l0,0
	c0-20.7,16.8-37.5,37.5-37.5h225c20.7,0,37.5,16.8,37.5,37.5l0,0C550,294,533.2,310.8,512.4,310.8z"/>
<linearGradient id="shadow_1_" gradientUnits="userSpaceOnUse" x1="985.3563" y1="-112.2963" x2="434" y2="439.06" gradientTransform="matrix(0.7055 0 0 -0.7055 0 564.3954)">
	<stop  offset="0" style="stop-color:#2C323E;stop-opacity:0"/>
	<stop  offset="1" style="stop-color:#2C323E;stop-opacity:0.3"/>
</linearGradient>
<path id="shadow" fill="url(#shadow_1_)" d="M539,246.9c6.7,6.8,10.9,16.1,10.9,26.4c0.1,20.7-16.7,37.5-37.5,37.5h-225
	c-10.4,0-19.7-4.2-26.5-10.9l0,0l86.1,86.1h165.4c20.7,0,37.5,16.8,37.5,37.5c0.1,20.7-16.7,37.5-37.5,37.5h-225
	c-10.3,0-19.6-4.2-26.4-10.9l0,0l160.6,160.6H441c5.8,0,11.6,1.3,16.8,4l138,69.1c25,12.5,54.3-5.7,54.3-33.5v-1.8
	c0-20.7,16.8-37.5,37.5-37.5h25c20.7,0,37.5-16.8,37.5-37.5V457.8L539,246.9z"/>
<g id="text" display="none">
	<path id="_x32_" display="inline" fill="#FFFFFF" d="M512.4,385.9h-225c-20.7,0-37.5,16.7-37.5,37.5c0,20.7,16.7,37.5,37.5,37.5
		h225c20.7,0,37.5-16.8,37.5-37.5C549.9,402.7,533.2,385.9,512.4,385.9z"/>
	<path id="_x31_" display="inline" fill="#FFFFFF" d="M512.4,235.9h-225c-20.7,0-37.5,16.7-37.5,37.5c0,20.7,16.7,37.5,37.5,37.5
		h225c20.7,0,37.5-16.8,37.5-37.5C549.9,252.7,533.2,235.9,512.4,235.9z"/>
</g>
</svg>
