<?xml version="1.0" encoding="utf-8"?>
<!-- Generator: Adobe Illustrator 18.0.0, SVG Export Plug-In . SVG Version: 6.00 Build 0)  -->
<svg version="1.1" id="overlay" xmlns="http://www.w3.org/2000/svg" xmlns:xlink="http://www.w3.org/1999/xlink" x="0px" y="0px"
	 viewBox="0 0 1133.9 1133.9" enable-background="new 0 0 1133.9 1133.9" xml:space="preserve">
<path id="item_x5F_below" fill="#8392A9" d="M141.7,946.8v-618c0-25-20.3-45.4-45.4-45.4h-51c-25,0-45.4,20.3-45.4,45.4v759.7
	c0,25,20.3,45.4,45.4,45.4H805c25,0,45.4-20.3,45.4-45.4v-51c0-25-20.3-45.4-45.4-45.4h-618C162,992.1,141.7,971.8,141.7,946.8z"/>
<path id="item_x5F_above" fill="#8392A9" d="M1088.5,0H328.8c-25,0-45.4,20.3-45.4,45.4V805c0,25,20.3,45.4,45.4,45.4h759.7
	c25,0,45.4-20.3,45.4-45.4V45.4C1133.9,20.3,1113.6,0,1088.5,0z"/>
</svg>
