<?xml version="1.0" encoding="utf-8"?>
<!-- Generator: Adobe Illustrator 18.0.0, SVG Export Plug-In . SVG Version: 6.00 Build 0)  -->
<svg version="1.1" id="comment" xmlns="http://www.w3.org/2000/svg" xmlns:xlink="http://www.w3.org/1999/xlink" x="0px" y="0px"
	 viewBox="0 0 1133.9 1133.9" enable-background="new 0 0 1133.9 1133.9" xml:space="preserve">
<path id="_x32_" fill="#536480" d="M707,546.9h19.3c29.4,0,53.1,23.8,53.1,53.1c0.1,29.3-23.7,53.1-53.1,53.1H600.8L388.3,865.6
	h236.8c8.2,0,16.4,1.9,23.8,5.6L844.4,969c35.4,17.7,76.9-8.1,76.9-47.5v-2.6c0-29.4,23.8-53.1,53.1-53.1h35.4
	c29.4,0,53.1-23.8,53.1-53.1V191L707,546.9z"/>
<path id="_x31_" fill="#536480" d="M267.9,865.6h0.2l212.5-212.5h-0.2l106.2-106.2h0.2l106.4-106.4H693l79.4-79.4c0,0,0,0.1,0.1,0.1
	l239.6-239.6c-0.1,0-0.1,0-0.2,0l15.8-15.8c16.6-16.6,16.6-43.5,0-60.1c-16.6-16.6-43.5-16.6-60.1,0l-75.9,75.9H123.9
	c-29.3,0-53.1,23.8-53.1,53.1v637.8c0,29.4,23.8,53.1,53.1,53.1h23.8l-102,102c-16.5,16.6-16.5,43.5,0,60.1
	c16.6,16.6,43.5,16.6,60.1,0L267.9,865.6z M407.4,334.3H679L572.8,440.5H407.4c-29.4,0-53.1-23.8-53.1-53.1
	C354.3,358,378.1,334.3,407.4,334.3z M407.4,546.9h59l-93.5,93.5c-11.4-9.7-18.6-24.2-18.6-40.4
	C354.3,570.7,378.1,546.9,407.4,546.9z"/>
<g id="shadow">
	<g>
		<g>
			<linearGradient id="SVGID_1_" gradientUnits="userSpaceOnUse" x1="985.3126" y1="912.2331" x2="433.9888" y2="360.9093">
				<stop  offset="0" style="stop-color:#2C323E;stop-opacity:0"/>
				<stop  offset="1" style="stop-color:#2C323E;stop-opacity:0.3"/>
			</linearGradient>
			<path fill="url(#SVGID_1_)" d="M586.8,547l106.5-106.5H407.4c-14.7,0-27.9-5.9-37.5-15.5l0,0l122,122H586.8z"/>
		</g>
		<g>
			<linearGradient id="SVGID_2_" gradientUnits="userSpaceOnUse" x1="985.3126" y1="912.2331" x2="433.9888" y2="360.9093">
				<stop  offset="0" style="stop-color:#2C323E;stop-opacity:0"/>
				<stop  offset="1" style="stop-color:#2C323E;stop-opacity:0.3"/>
			</linearGradient>
			<path fill="url(#SVGID_2_)" d="M773.9,359.9L764,350c3.3,3.3,6.2,7.1,8.5,11.3L773.9,359.9z"/>
		</g>
		<g>
			<linearGradient id="SVGID_3_" gradientUnits="userSpaceOnUse" x1="985.3126" y1="912.2331" x2="433.9888" y2="360.9093">
				<stop  offset="0" style="stop-color:#2C323E;stop-opacity:0"/>
				<stop  offset="1" style="stop-color:#2C323E;stop-opacity:0.3"/>
			</linearGradient>
			<path fill="url(#SVGID_3_)" d="M407.4,653.2c-14.6,0-27.8-5.9-37.4-15.4l0,0l63,63l47.6-47.6H407.4z"/>
		</g>
		<g>
			<linearGradient id="SVGID_4_" gradientUnits="userSpaceOnUse" x1="985.3126" y1="912.2331" x2="433.9888" y2="360.9093">
				<stop  offset="0" style="stop-color:#2C323E;stop-opacity:0"/>
				<stop  offset="1" style="stop-color:#2C323E;stop-opacity:0.3"/>
			</linearGradient>
			<path fill="url(#SVGID_4_)" d="M707,547h19.3c29.4,0,53.1,23.8,53.1,53.1c0.1,29.3-23.7,53.1-53.1,53.1H600.8L493.1,760.9
				l104.7,104.7h27.3c8.2,0,16.4,1.9,23.8,5.6L844.4,969c35.4,17.7,76.9-8.1,76.9-47.5v-2.6c0-29.4,23.8-53.1,53.1-53.1h35.4
				c29.4,0,53.1-23.8,53.1-53.1V648.9L834,420L707,547z"/>
		</g>
	</g>
</g>
<g id="text">
	<path id="_x32__1_" fill="#FFFFFF" d="M726.3,547H407.4c-29.3,0-53.1,23.7-53.1,53.1c0,29.3,23.7,53.1,53.1,53.1h318.9
		c29.4,0,53.2-23.8,53.1-53.1C779.4,570.8,755.7,547,726.3,547z"/>
	<path id="_x31__1_" fill="#FFFFFF" d="M726.3,334.3H407.4c-29.3,0-53.1,23.7-53.1,53.1c0,29.3,23.7,53.1,53.1,53.1h318.9
		c29.4,0,53.2-23.8,53.1-53.1C779.4,358.1,755.7,334.3,726.3,334.3z"/>
</g>
</svg>
