<?xml version="1.0" encoding="utf-8"?>
<!-- Generator: Adobe Illustrator 18.1.1, SVG Export Plug-In . SVG Version: 6.00 Build 0)  -->
<svg version="1.1" id="Ebene_1" xmlns="http://www.w3.org/2000/svg" xmlns:xlink="http://www.w3.org/1999/xlink" x="0px" y="0px"
	 viewBox="0 0 1133.9 1133.9" enable-background="new 0 0 1133.9 1133.9" xml:space="preserve">
<rect x="170.1" y="170.1" display="none" fill="#F6F6F6" width="793.7" height="793.7"/>
<g display="none">
	<g display="inline">
		<rect x="170.1" y="170.1" fill="#EDEDED" width="113.4" height="595.3"/>
		<rect x="283.5" y="170.1" fill="#EDEDED" width="113.4" height="595.3"/>
		<rect x="396.9" y="170.1" fill="#EDEDED" width="113.4" height="595.3"/>
		<rect x="510.2" y="170.1" fill="#EDEDED" width="113.4" height="595.3"/>
		<rect x="623.6" y="170.1" fill="#EDEDED" width="113.4" height="595.3"/>
		<rect x="737" y="170.1" fill="#EDEDED" width="113.4" height="595.3"/>
		<polygon fill="#EDEDED" points="850.4,878.7 850.4,765.4 623.6,765.4 		"/>
		<rect x="850.4" y="170.1" fill="#EDEDED" width="113.4" height="595.3"/>
	</g>
	<g display="inline">
		<rect x="170.1" y="170.1" fill="#EDEDED" width="793.7" height="85"/>
		<rect x="170.1" y="255.1" fill="#EDEDED" width="793.7" height="85"/>
		<rect x="170.1" y="340.2" fill="#EDEDED" width="793.7" height="85"/>
		<rect x="170.1" y="425.2" fill="#EDEDED" width="793.7" height="85"/>
		<rect x="170.1" y="510.2" fill="#EDEDED" width="793.7" height="85"/>
		<rect x="170.1" y="595.3" fill="#EDEDED" width="793.7" height="85"/>
		<rect x="170.1" y="680.3" fill="#EDEDED" width="793.7" height="85"/>
	</g>
	<g display="inline">
		<rect x="396.9" y="340.2" fill="#FFFFFF" width="340.2" height="85"/>
		<rect x="396.9" y="510.2" fill="#FFFFFF" width="340.2" height="85"/>
	</g>
</g>
<g>
	<path fill="#2C323E" d="M1057.9,75.8l-60.1-60.1l-126,126H90.7V856h66.8L15.7,997.8l60.1,60.1L277.7,856h0.2l204-204h-0.2
		l102.1-102.1h0.2L686,447.9h-0.2l85.2-85.2v0.2l221.2-221.2H992L1057.9,75.8z M362.9,650.6V549.9h100.7L362.9,650.6z M362.9,447.9
		V345.8h304.8L565.6,447.9H362.9z"/>
	<polygon fill="#2C323E" points="704.1,549.9 771,549.9 771,652 602.1,652 398,856 634.9,856 907.1,992.1 907.1,856 1043.2,856 
		1043.2,210.9 	"/>
</g>
</svg>
