<?xml version="1.0" encoding="utf-8"?>
<!-- Generator: Adobe Illustrator 18.0.0, SVG Export Plug-In . SVG Version: 6.00 Build 0)  -->
<svg version="1.1" id="authenticated_1_" xmlns="http://www.w3.org/2000/svg" xmlns:xlink="http://www.w3.org/1999/xlink" x="0px"
	 y="0px" viewBox="0 0 1133.9 1133.9" enable-background="new 0 0 1133.9 1133.9" xml:space="preserve">
<path id="background" fill="#FFAA50" d="M566.9,0C253.8,0,0,253.8,0,566.9s253.8,566.9,566.9,566.9s566.9-253.8,566.9-566.9
	S880,0,566.9,0z M788.8,872.4L566.9,755.7L345,872.4l42.4-247.1l-179.5-175L456,414.2l111-224.8l111,224.8L926,450.3l-179.5,175
	L788.8,872.4z"/>
<linearGradient id="shadow_2_" gradientUnits="userSpaceOnUse" x1="954.9567" y1="980.65" x2="316.2375" y2="341.9308">
	<stop  offset="0" style="stop-color:#2C323E;stop-opacity:0"/>
	<stop  offset="1" style="stop-color:#2C323E;stop-opacity:0.3"/>
</linearGradient>
<path id="shadow" fill="url(#shadow_2_)" d="M1127.5,651.8L926,450.3L787.9,584.9l-51.6,1.2V422.7l74.9,10.9L566.9,189.4l111,224.8
	l33.7,4.9v167.6l-354.9,8.6l-148.8-145l178.8,179.1l0.7-4.1h359.1l42.4,247.1L566.9,755.7L345.2,872.3l260.3,260.3l0,0
	C872.2,1114.7,1088.4,912.2,1127.5,651.8z"/>
<polygon id="symbol" fill="#FFFFFF" points="677.9,414.2 566.9,189.4 456,414.2 207.9,450.3 387.4,625.3 345,872.4 566.9,755.7 
	788.8,872.4 746.5,625.3 926,450.3 "/>
</svg>
