<?xml version="1.0" encoding="utf-8"?>
<!-- Generator: Adobe Illustrator 18.0.0, SVG Export Plug-In . SVG Version: 6.00 Build 0)  -->
<svg version="1.1" id="Ebene_1" xmlns="http://www.w3.org/2000/svg" xmlns:xlink="http://www.w3.org/1999/xlink" x="0px" y="0px"
	 viewBox="0 0 1133.9 1133.9" enable-background="new 0 0 1133.9 1133.9" xml:space="preserve">
<circle id="background" fill="#8392A9" cx="566.9" cy="566.9" r="566.9"/>
<path id="avatar" fill="#FFFFFF" d="M956.5,978.8c-1.1-1-2.2-2.2-3.3-3.2c-80.3-77.9-233.8-82.7-264.6-163
	c-2.4-37.8-2.4-63.7-2.4-99.2c16.6-9.5,47.3-66.1,54.4-115.7c14.2,0,35.4-14.2,40.2-66.1c2.4-28.3-9.5-44.9-18.9-49.6
	c21.2-66.1,68.5-271.6-85-292.9c-16.6-28.3-56.7-42.5-108.6-42.5C358.1,151.3,334.5,304.8,379.4,482c-7.1,4.7-21.2,21.2-18.9,49.6
	c7.1,52,28.3,66.1,40.2,66.1c4.7,49.6,37.8,106.2,54.4,115.7c0,35.4,2.4,61.5-2.4,99.2c-30.7,80.3-181.9,87.4-271.6,163
	c-1.1,1-2.3,2.1-3.3,3.2c101.6,96.1,238.6,155.1,389.5,155.1C717.9,1133.9,854.9,1074.9,956.5,978.8z"/>
</svg>
