<?xml version="1.0" encoding="utf-8"?>
<!-- Generator: Adobe Illustrator 18.0.0, SVG Export Plug-In . SVG Version: 6.00 Build 0)  -->
<svg version="1.1" id="filter" xmlns="http://www.w3.org/2000/svg" xmlns:xlink="http://www.w3.org/1999/xlink" x="0px" y="0px"
	 viewBox="0 0 1133.9 1133.9" enable-background="new 0 0 1133.9 1133.9" xml:space="preserve">
<path id="_x32_" fill="#8392A9" d="M379,875c3.7,26.6,17.7,49.9,37.8,65.9c3.8,3,7.9,5.8,12.2,8.3l264.2,149.2
	c28.1,15.9,62.8-4.4,62.8-36.7V559.8c0-11.2,4.4-21.9,12.3-29.8l293.6-293.6c0.2-0.2,0.5-0.5,0.7-0.7c14.4-14.8,14.9-35.3,6.1-50.5
	L379,875z"/>
<path id="_x31_" fill="#8392A9" d="M1027.8,45.7L1027.8,45.7c-16.6-16.6-43.5-16.6-60.1,0L849.1,164.4H101.7
	c-37.3,0-56.3,44.9-30.2,71.5c0.2,0.2,0.4,0.4,0.6,0.6L365.7,530c7.9,7.9,12.3,18.6,12.3,29.8v75.7L45.7,967.7
	c-16.6,16.6-16.6,43.5,0,60.1l0,0c16.6,16.6,43.5,16.6,60.1,0L378,755.7v0.1l591.4-591.4h-0.1l58.5-58.5
	C1044.4,89.3,1044.4,62.3,1027.8,45.7z"/>
</svg>
