<?xml version="1.0" encoding="utf-8"?>
<!-- Generator: Adobe Illustrator 18.0.0, SVG Export Plug-In . SVG Version: 6.00 Build 0)  -->
<svg version="1.1" id="information" xmlns="http://www.w3.org/2000/svg" xmlns:xlink="http://www.w3.org/1999/xlink" x="0px"
	 y="0px" viewBox="0 0 1133.9 1133.9" enable-background="new 0 0 1133.9 1133.9" xml:space="preserve">
<path id="information_1_" fill="#8392A9" d="M1133.9,0H591.4c-15.7,0-30.8,6.2-41.9,17.4L41.9,524.9c-23.2,23.2-23.2,60.7,0,83.9
	l483,483c23.2,23.2,60.7,23.2,83.9,0l507.6-507.6c11.1-11.1,17.4-26.2,17.4-41.9L1133.9,0L1133.9,0z M912.6,162L912.6,162
	c32.8,0,59.3,26.6,59.3,59.3l0,0c0,52.8-63.9,79.3-101.2,41.9l0,0C833.3,225.9,859.7,162,912.6,162z"/>
</svg>
