<?xml version="1.0" encoding="utf-8"?>
<!-- Generator: Adobe Illustrator 18.0.0, SVG Export Plug-In . SVG Version: 6.00 Build 0)  -->
<svg version="1.1" id="comment" xmlns="http://www.w3.org/2000/svg" xmlns:xlink="http://www.w3.org/1999/xlink" x="0px" y="0px"
	 viewBox="0 0 1133.9 1133.9" enable-background="new 0 0 1133.9 1133.9" xml:space="preserve">
<path id="comment_1_" fill="#8392A9" d="M1073.2,79.4H60.7C27.2,79.4,0,106.6,0,140.1v728.9c0,33.6,27.2,60.7,60.7,60.7h572.8
	c9.4,0,18.7,2.2,27.2,6.4l223.4,111.8c40.5,20.2,87.9-9.3,87.9-54.3v-3c0-33.6,27.2-60.7,60.7-60.7h40.5c33.6,0,60.7-27.2,60.7-60.7
	V140.1C1134,106.6,1106.8,79.4,1073.2,79.4z M749.2,687H384.7c-33.6,0-60.7-27.2-60.7-60.7l0,0c0-33.6,27.2-60.7,60.7-60.7h364.5
	c33.6,0,60.7,27.2,60.7,60.7l0,0C810,659.8,782.8,687,749.2,687z M749.2,443.9H384.7c-33.6,0-60.7-27.2-60.7-60.7l0,0
	c0-33.6,27.2-60.7,60.7-60.7h364.5c33.6,0,60.7,27.2,60.7,60.7l0,0C810,416.7,782.8,443.9,749.2,443.9z"/>
<linearGradient id="shadow_1_" gradientUnits="userSpaceOnUse" x1="1045.2711" y1="983.1852" x2="415.1111" y2="353.0251" gradientTransform="matrix(1 0 0 1 0 -8.007530e-002)">
	<stop  offset="0" style="stop-color:#2C323E;stop-opacity:0"/>
	<stop  offset="1" style="stop-color:#2C323E;stop-opacity:0.3"/>
</linearGradient>
<path id="shadow" fill="url(#shadow_1_)" d="M792.2,340.5c10.9,11,17.6,26.1,17.6,42.7c0.1,33.5-27.1,60.7-60.7,60.7H384.7
	c-16.8,0-31.9-6.7-42.9-17.7l0,0l139.4,139.4h267.9c33.6,0,60.7,27.2,60.7,60.7c0.1,33.5-27.1,60.7-60.7,60.7H384.7
	c-16.7,0-31.8-6.7-42.7-17.6l0,0l260.2,260.2h31.2c9.4,0,18.7,2.2,27.2,6.4l223.5,111.9c40.5,20.2,87.9-9.3,87.9-54.3v-3
	c0-33.6,27.2-60.7,60.7-60.7h40.5c33.6,0,60.7-27.2,60.7-60.7V682.1L792.2,340.5z"/>
<g id="text" display="none">
	<path id="_x32_" display="inline" fill="#FFFFFF" d="M749.2,565.6H384.7c-33.5,0-60.7,27.1-60.7,60.7c0,33.5,27.1,60.7,60.7,60.7
		h364.5c33.6,0,60.8-27.2,60.7-60.7C809.8,592.8,782.8,565.6,749.2,565.6z"/>
	<path id="_x31_" display="inline" fill="#FFFFFF" d="M749.2,322.5H384.7c-33.5,0-60.7,27.1-60.7,60.7c0,33.5,27.1,60.7,60.7,60.7
		h364.5c33.6,0,60.8-27.2,60.7-60.7C809.8,349.7,782.8,322.5,749.2,322.5z"/>
</g>
</svg>
