<?xml version="1.0" encoding="utf-8"?>
<!-- Generator: Adobe Illustrator 18.0.0, SVG Export Plug-In . SVG Version: 6.00 Build 0)  -->
<svg version="1.1" id="Ebene_1" xmlns="http://www.w3.org/2000/svg" xmlns:xlink="http://www.w3.org/1999/xlink" x="0px" y="0px"
	 viewBox="0 0 1133.9 1133.9" enable-background="new 0 0 1133.9 1133.9" xml:space="preserve">
<rect x="170.1" y="170.1" display="none" fill="#F6F6F6" width="793.7" height="793.7"/>
<g display="none">
	<g display="inline">
		<rect x="170.1" y="170.1" fill="#EDEDED" width="113.4" height="595.3"/>
		<rect x="283.5" y="170.1" fill="#EDEDED" width="113.4" height="595.3"/>
		<rect x="396.9" y="170.1" fill="#EDEDED" width="113.4" height="595.3"/>
		<rect x="510.2" y="170.1" fill="#EDEDED" width="113.4" height="595.3"/>
		<rect x="623.6" y="170.1" fill="#EDEDED" width="113.4" height="595.3"/>
		<rect x="737" y="170.1" fill="#EDEDED" width="113.4" height="595.3"/>
		<polygon fill="#EDEDED" points="850.4,878.7 850.4,765.4 623.6,765.4 		"/>
		<rect x="850.4" y="170.1" fill="#EDEDED" width="113.4" height="595.3"/>
	</g>
	<g display="inline">
		<rect x="170.1" y="170.1" fill="#EDEDED" width="793.7" height="85"/>
		<rect x="170.1" y="255.1" fill="#EDEDED" width="793.7" height="85"/>
		<rect x="170.1" y="340.2" fill="#EDEDED" width="793.7" height="85"/>
		<rect x="170.1" y="425.2" fill="#EDEDED" width="793.7" height="85"/>
		<rect x="170.1" y="510.2" fill="#EDEDED" width="793.7" height="85"/>
		<rect x="170.1" y="595.3" fill="#EDEDED" width="793.7" height="85"/>
		<rect x="170.1" y="680.3" fill="#EDEDED" width="793.7" height="85"/>
	</g>
	<g display="inline">
		<rect x="396.9" y="340.2" fill="#FFFFFF" width="340.2" height="85"/>
		<rect x="396.9" y="510.2" fill="#FFFFFF" width="340.2" height="85"/>
	</g>
</g>
<path fill="#536480" d="M1073.1,60.7H60.7C27.2,60.7,0,87.9,0,121.4v728.9c0,33.6,27.2,60.7,60.7,60.7h572.8
	c9.4,0,18.7,2.2,27.2,6.4L884,1029.1c40.4,20.2,87.9-9.2,87.9-54.3v-3c0-33.6,27.2-60.7,60.7-60.7h40.5c33.6,0,60.7-27.2,60.7-60.7
	V121.4C1133.9,87.9,1106.7,60.7,1073.1,60.7z M749.1,668.2H384.7c-33.6,0-60.7-27.2-60.7-60.7v0c0-33.6,27.2-60.7,60.7-60.7h364.4
	c33.6,0,60.7,27.2,60.7,60.7v0C809.9,641,782.7,668.2,749.1,668.2z M749.1,425.2H384.7c-33.6,0-60.7-27.2-60.7-60.7v0
	c0-33.6,27.2-60.7,60.7-60.7h364.4c33.6,0,60.7,27.2,60.7,60.7v0C809.9,398,782.7,425.2,749.1,425.2z"/>
</svg>
