<?xml version="1.0" encoding="utf-8"?>
<!-- Generator: Adobe Illustrator 18.0.0, SVG Export Plug-In . SVG Version: 6.00 Build 0)  -->
<svg version="1.1" id="speaker" xmlns="http://www.w3.org/2000/svg" xmlns:xlink="http://www.w3.org/1999/xlink" x="0px" y="0px"
	 viewBox="0 0 1133.9 1133.9" enable-background="new 0 0 1133.9 1133.9" xml:space="preserve">
<path id="speaker_1_" fill="#8392A9" d="M572.6,57.9c-12.2,0-23.4,4.3-32.2,11.5L283.5,283.5H102c-56.4,0-102,45.7-102,102v364.2
	c0,50.7,37,92.7,85.4,100.7h198.1l256.1,213.4l0,0c8.9,7.6,20.4,12.1,33,12.1c28.2,0,51-22.8,51-51v-916
	C623.6,80.8,600.8,57.9,572.6,57.9z"/>
<path id="_x29__1_" fill="#8392A9" d="M887.3,566.9c0-98.9-54.2-185.1-134.3-230.5c-16.9-9.5-38.3-3.8-48.1,13
	c-9.8,16.8-4.2,38.6,12.7,48.5c59,33.1,98.9,96.3,98.9,169c0,0,0,0,0,0.1l0,0c0,72.4-39.9,135.4-98.9,168.4
	c-16.9,9.8-22.5,31.5-12.7,48.3c9.8,16.8,31.2,22.5,48.1,13C833.1,751.5,887.3,665.6,887.3,566.9L887.3,566.9L887.3,566.9z"/>
<path id="_x29_" fill="#8392A9" d="M1064.4,566.9L1064.4,566.9C1064.3,566.9,1064.3,566.9,1064.4,566.9
	c-0.1-138.4-63.7-261.8-163.2-342.6c-15.3-11.9-37.4-9.3-49.5,5.9c-12.2,15.3-9.6,37.6,5.7,49.8l-0.7-0.5
	c83.5,67.9,136.8,171.4,136.8,287.3h0.1c0,116-53.4,219.5-137,287.3l0.7-0.5c-15.3,12.2-17.9,34.5-5.7,49.8
	c12.1,15.2,34.3,17.8,49.6,5.9C1000.7,828.7,1064.4,705.3,1064.4,566.9C1064.4,567,1064.4,566.9,1064.4,566.9z"/>
</svg>
