<?xml version="1.0" encoding="utf-8"?>
<!-- Generator: Adobe Illustrator 18.0.0, SVG Export Plug-In . SVG Version: 6.00 Build 0)  -->
<svg version="1.1" id="comment" xmlns="http://www.w3.org/2000/svg" xmlns:xlink="http://www.w3.org/1999/xlink" x="0px" y="0px"
	 viewBox="0 0 1133.9 1133.9" enable-background="new 0 0 1133.9 1133.9" xml:space="preserve">
<path id="comment_1_" fill="#1DCE73" d="M1009.8,121.6H123.9c-29.3,0-53.1,23.8-53.1,53.1v637.8c0,29.4,23.8,53.1,53.1,53.1h501.2
	c8.2,0,16.4,1.9,23.8,5.6L844.4,969c35.4,17.7,76.9-8.1,76.9-47.5v-2.6c0-29.4,23.8-53.1,53.1-53.1h35.4c29.4,0,53.1-23.8,53.1-53.1
	v-638C1063,145.4,1039.2,121.6,1009.8,121.6z M726.3,653.2H407.4c-29.4,0-53.1-23.8-53.1-53.1l0,0c0-29.4,23.8-53.1,53.1-53.1h318.9
	c29.4,0,53.1,23.8,53.1,53.1l0,0C779.5,629.4,755.7,653.2,726.3,653.2z M726.3,440.5H407.4c-29.4,0-53.1-23.8-53.1-53.1l0,0
	c0-29.4,23.8-53.1,53.1-53.1h318.9c29.4,0,53.1,23.8,53.1,53.1l0,0C779.5,416.7,755.7,440.5,726.3,440.5z"/>
<linearGradient id="shadow_1_" gradientUnits="userSpaceOnUse" x1="985.3563" y1="221.6037" x2="434" y2="772.96" gradientTransform="matrix(1 0 0 -1 0 1133.8199)">
	<stop  offset="0" style="stop-color:#2C323E;stop-opacity:0"/>
	<stop  offset="1" style="stop-color:#2C323E;stop-opacity:0.3"/>
</linearGradient>
<path id="shadow" fill="url(#shadow_1_)" d="M764,350c9.5,9.6,15.4,22.8,15.4,37.4c0.1,29.3-23.7,53.1-53.1,53.1H407.4
	c-14.7,0-27.9-5.9-37.5-15.5l0,0l122,122h234.4c29.4,0,53.1,23.8,53.1,53.1c0.1,29.3-23.7,53.1-53.1,53.1H407.4
	c-14.6,0-27.8-5.9-37.4-15.4l0,0l227.7,227.7H625c8.2,0,16.4,1.9,23.8,5.6L844.4,969c35.4,17.7,76.9-8.1,76.9-47.5v-2.6
	c0-29.4,23.8-53.1,53.1-53.1h35.4c29.4,0,53.1-23.8,53.1-53.1V648.9L764,350z"/>
<g id="text" display="none">
	<path id="_x32_" display="inline" fill="#FFFFFF" d="M726.3,547H407.4c-29.3,0-53.1,23.7-53.1,53.1c0,29.3,23.7,53.1,53.1,53.1
		h318.9c29.4,0,53.2-23.8,53.1-53.1C779.4,570.8,755.7,547,726.3,547z"/>
	<path id="_x31_" display="inline" fill="#FFFFFF" d="M726.3,334.3H407.4c-29.3,0-53.1,23.7-53.1,53.1c0,29.3,23.7,53.1,53.1,53.1
		h318.9c29.4,0,53.2-23.8,53.1-53.1C779.4,358.1,755.7,334.3,726.3,334.3z"/>
</g>
</svg>
