<?xml version="1.0" encoding="utf-8"?>
<!-- Generator: Adobe Illustrator 18.0.0, SVG Export Plug-In . SVG Version: 6.00 Build 0)  -->
<svg version="1.1" id="microphone-muted" xmlns="http://www.w3.org/2000/svg" xmlns:xlink="http://www.w3.org/1999/xlink" x="0px"
	 y="0px" viewBox="0 0 800 800" enable-background="new 0 0 800 800" xml:space="preserve">
<g id="mic">
	<path id="background" d="M727.3,800H72.7C32.7,800,0,767.3,0,727.3V72.7C0,32.7,32.7,0,72.7,0h654.5c40,0,72.7,32.7,72.7,72.7
		v654.5C800,767.3,767.3,800,727.3,800z"/>
	<path fill="#FFFFFF" d="M700,238.8v225c0,41.4-33.6,75-75,75H515.1c-25.1,0-48.5,12.5-62.4,33.4l-37.1,55.7
		c-7.4,11.1-23.8,11.1-31.2,0l-37.1-55.7c-13.9-20.9-37.3-33.4-62.4-33.4H175c-41.4,0-75-33.6-75-75v-225c0-41.4,33.6-75,75-75h450
		C666.4,163.8,700,197.4,700,238.8z"/>
</g>
<g id="stroke" display="none">
	
		<rect x="395.7" y="69.3" transform="matrix(-0.7071 -0.7071 0.7071 -0.7071 416.7709 1000.6386)" display="inline" width="39.7" height="689.4"/>
	
		<rect x="333.7" y="27.2" transform="matrix(-0.7071 -0.7071 0.7071 -0.7071 374.5721 898.9445)" display="inline" fill="#FF9696" width="79.6" height="689.4"/>
</g>
</svg>
