<?xml version="1.0" encoding="utf-8"?>
<!-- Generator: Adobe Illustrator 18.0.0, SVG Export Plug-In . SVG Version: 6.00 Build 0)  -->
<svg version="1.1" xmlns="http://www.w3.org/2000/svg" xmlns:xlink="http://www.w3.org/1999/xlink" x="0px" y="0px"
	 viewBox="0 0 1200 1200" enable-background="new 0 0 1200 1200" xml:space="preserve">
<g id="grid" display="none">
	<g id="tilt_x5F_down" display="inline">
	</g>
	<g id="tilt_x5F_up" display="inline">
	</g>
	<g id="vertical" display="inline">
	</g>
	<g id="horizontal" display="inline">
	</g>
</g>
<g id="Ebene_6">
	<path id="background" d="M1050,1150H150c-55,0-100-45-100-100V150C50,95,95,50,150,50h900c55,0,100,45,100,100v900
		C1150,1105,1105,1150,1050,1150z"/>
	<path fill="#FFFFFF" d="M200,746.5v-293c0-33.4,16.7-64.7,44.5-83.2L500,200v800L244.5,829.7C216.7,811.1,200,779.9,200,746.5z"/>
	<path fill="none" stroke="#FFFFFF" stroke-width="100" stroke-miterlimit="10" d="M601,250c192.7,0,349,156.7,349,350
		S793.7,950,601,950"/>
	<path fill="none" stroke="#FFFFFF" stroke-width="100" stroke-miterlimit="10" d="M600,450c82.8,0,150,67.2,150,150
		s-67.2,150-150,150"/>
</g>
<g id="stroke">
	<rect x="592.2" y="159.1" transform="matrix(0.7071 0.7071 -0.7071 0.7071 618.75 -256.2946)" width="53" height="919.2"/>
	
		<rect x="509.5" y="102.9" transform="matrix(0.7071 0.7071 -0.7071 0.7071 562.5 -232.9951)" fill="#FFFFFF" width="106.1" height="919.2"/>
</g>
</svg>
