<?xml version="1.0" encoding="utf-8"?>
<!-- Generator: Adobe Illustrator 18.0.0, SVG Export Plug-In . SVG Version: 6.00 Build 0)  -->
<svg version="1.1" xmlns="http://www.w3.org/2000/svg" xmlns:xlink="http://www.w3.org/1999/xlink" x="0px" y="0px"
	 viewBox="0 0 1200 1200" enable-background="new 0 0 1200 1200" xml:space="preserve">
<g id="grid" display="none">
	<g id="tilt_x5F_down" display="inline">
	</g>
	<g id="tilt_x5F_up" display="inline">
	</g>
	<g id="vertical" display="inline">
	</g>
	<g id="horizontal" display="inline">
	</g>
</g>
<g id="Ebene_6">
	<path id="background" d="M1050,1150H150c-55,0-100-45-100-100V150C50,95,95,50,150,50h900c55,0,100,45,100,100v900
		C1150,1105,1105,1150,1050,1150z"/>
	<path fill="#FFFFFF" d="M600,1000L600,1000c-55.2,0-100-44.8-100-100V300c0-55.2,44.8-100,100-100h0c55.2,0,100,44.8,100,100v600
		C700,955.2,655.2,1000,600,1000z"/>
	<path fill="#FFFFFF" d="M300,350L300,350c-55.2,0-100,44.8-100,100v300c0,55.2,44.8,100,100,100h0c55.2,0,100-44.8,100-100V450
		C400,394.8,355.2,350,300,350z"/>
	<path fill="#FFFFFF" d="M900,850L900,850c55.2,0,100-44.8,100-100V450c0-55.2-44.8-100-100-100h0c-55.2,0-100,44.8-100,100v300
		C800,805.2,844.8,850,900,850z"/>
</g>
<g id="stroke">
	<rect x="592.2" y="159.1" transform="matrix(0.7071 0.7071 -0.7071 0.7071 618.75 -256.2946)" width="53" height="919.2"/>
	
		<rect x="509.5" y="102.9" transform="matrix(0.7071 0.7071 -0.7071 0.7071 562.5 -232.9951)" fill="#FFFFFF" width="106.1" height="919.2"/>
</g>
</svg>
