<?xml version="1.0" encoding="utf-8"?>
<!-- Generator: Adobe Illustrator 18.0.0, SVG Export Plug-In . SVG Version: 6.00 Build 0)  -->
<svg version="1.1" id="filter" xmlns="http://www.w3.org/2000/svg" xmlns:xlink="http://www.w3.org/1999/xlink" x="0px" y="0px"
	 viewBox="0 0 800 800" enable-background="new 0 0 800 800" xml:space="preserve">
<path id="filter_1_" fill="#4A4F65" d="M728.3,116H71.8c-26.3,0-39.7,31.7-21.3,50.4c0.1,0.1,0.3,0.3,0.4,0.4L258,373.9
	c5.6,5.6,8.7,13.1,8.7,21v212.4c0,22.9,10.7,43.2,27.4,56.4c2.7,2.1,5.6,4.1,8.6,5.9l0,0l186.4,105.3c19.8,11.2,44.3-3.1,44.3-25.9
	V395c0-7.9,3.1-15.5,8.7-21l207.1-207.1c0.1-0.1,0.4-0.4,0.5-0.5C768,147.5,754.6,116,728.3,116z"/>
</svg>
