<?xml version="1.0" encoding="utf-8"?>
<!-- Generator: Adobe Illustrator 18.0.0, SVG Export Plug-In . SVG Version: 6.00 Build 0)  -->
<svg version="1.1" id="information" xmlns="http://www.w3.org/2000/svg" xmlns:xlink="http://www.w3.org/1999/xlink" x="0px"
	 y="0px" viewBox="0 0 800 800" enable-background="new 0 0 800 800" xml:space="preserve">
<path id="information_1_" fill="#4A4F65" d="M800,0H417.3c-11.1,0-21.7,4.4-29.6,12.3l-358.1,358c-16.4,16.4-16.4,42.8,0,59.2
	l340.8,340.8c16.4,16.4,42.8,16.4,59.2,0l358.1-358.1c7.8-7.8,12.3-18.5,12.3-29.6V0L800,0z M643.9,114.3L643.9,114.3
	c23.1,0,41.8,18.8,41.8,41.8l0,0c0,37.3-45.1,55.9-71.4,29.6l0,0C587.9,159.4,606.5,114.3,643.9,114.3z"/>
</svg>
