<?xml version="1.0" encoding="utf-8"?>
<!-- Generator: Adobe Illustrator 18.0.0, SVG Export Plug-In . SVG Version: 6.00 Build 0)  -->
<svg version="1.1" id="mumbleomega" xmlns="http://www.w3.org/2000/svg" xmlns:xlink="http://www.w3.org/1999/xlink" x="0px"
	 y="0px" viewBox="0 0 1133.9 1133.9" enable-background="new 0 0 1133.9 1133.9" xml:space="preserve">
<g id="v1" display="none">
	<rect display="inline" fill="#1A1A1A" width="1133.9" height="1133.9"/>
	<path display="inline" fill="#1A1A1A" d="M1133.9,921.3c0,117.4-95.2,212.6-212.6,212.6H212.6C95.2,1133.9,0,1038.7,0,921.3V212.6
		C0,95.2,95.2,0,212.6,0h708.7c117.4,0,212.6,95.2,212.6,212.6V921.3z"/>
	<polygon display="inline" fill="none" stroke="#FFFFFF" stroke-width="80" stroke-miterlimit="10" points="566.9,800.8 
		439.4,673.2 311.8,800.8 311.8,460.6 439.4,333.1 566.9,460.6 694.5,333.1 822,460.6 822,800.8 694.5,673.2 	"/>
</g>
<g id="v2">
	<circle id="background" fill="#3D97F2" cx="566.9" cy="566.9" r="566.9"/>
	<linearGradient id="shadow_1_" gradientUnits="userSpaceOnUse" x1="1018.8146" y1="916.7924" x2="488.4825" y2="386.4602">
		<stop  offset="0" style="stop-color:#2C323E;stop-opacity:0"/>
		<stop  offset="1" style="stop-color:#2C323E;stop-opacity:0.3"/>
	</linearGradient>
	<path id="shadow" fill="url(#shadow_1_)" d="M850.4,323.2L643,737.9V603.8l73.2-146.5l-122.5,61.2L566.9,532l-26.8-13.4
		l-122.5-61.2l149.3,298.6L619,651.8v134.2l-52.1,104.1l205.4,205.4c200.2-77.9,345.2-266.2,360.2-490.1L850.4,323.2z"/>
	<path id="symbol" fill="#FFFFFF" d="M716.2,457.3L566.9,755.9L417.6,457.3l122.5,61.2l26.8,13.4l26.8-13.4L716.2,457.3
		 M850.4,323.1L566.9,464.9L283.5,323.1l283.5,566.9L850.4,323.1L850.4,323.1z"/>
</g>
</svg>
