<?xml version="1.0" encoding="utf-8"?>
<!-- Generator: Adobe Illustrator 18.0.0, SVG Export Plug-In . SVG Version: 6.00 Build 0)  -->
<svg version="1.1" id="Ebene_1" xmlns="http://www.w3.org/2000/svg" xmlns:xlink="http://www.w3.org/1999/xlink" x="0px" y="0px"
	 viewBox="0 0 900 900" enable-background="new 0 0 900 900" xml:space="preserve">
<path d="M800,900H100C44.8,900,0,855.2,0,800V100C0,44.8,44.8,0,100,0h700c55.2,0,100,44.8,100,100v700C900,855.2,855.2,900,800,900
	z"/>
<path fill="#FFFFFF" d="M550,150L550,150C550,150,550,150,550,150v400c0,0,0,0,0,0H350c0,0,0,0,0,0V150c0,0,0,0,0,0H550 M550,50H350
	c-55.2,0-100,44.8-100,100v400c0,55.2,44.8,100,100,100h200c55.2,0,100-44.8,100-100V150C650,94.8,605.2,50,550,50L550,50z"/>
<g>
	<path fill="#FFFFFF" d="M500,700H400v50h-50c-55.2,0-100,44.8-100,100h400c0-27.6-11.2-52.6-29.3-70.7
		C602.6,761.2,577.6,750,550,750h-50V700L500,700z"/>
</g>
<rect x="442.2" y="-43.9" transform="matrix(0.7071 0.7071 -0.7071 0.7071 468.75 -194.1626)" width="53" height="1025.3"/>
<rect x="359.5" y="-47.1" transform="matrix(0.7071 0.7071 -0.7071 0.7071 412.5 -170.8631)" fill="#FFFFFF" width="106.1" height="919.2"/>
</svg>
