<?xml version="1.0" encoding="utf-8"?>
<!-- Generator: Adobe Illustrator 18.0.0, SVG Export Plug-In . SVG Version: 6.00 Build 0)  -->
<svg version="1.1" id="microphone-muted" xmlns="http://www.w3.org/2000/svg" xmlns:xlink="http://www.w3.org/1999/xlink" x="0px"
	 y="0px" viewBox="0 0 800 800" enable-background="new 0 0 800 800" xml:space="preserve">
<g id="mic">
	<path id="background" d="M727.3,800H72.7C32.7,800,0,767.3,0,727.3V72.7C0,32.7,32.7,0,72.7,0h654.5c40,0,72.7,32.7,72.7,72.7
		v654.5C800,767.3,767.3,800,727.3,800z"/>
	<path fill="#FFFFFF" d="M326.6,175 M326.6,475 M476.6,100h-150c-41.4,0-75,33.6-75,75v300c0,41.4,33.6,75,75,75h150
		c41.4,0,75-33.6,75-75V175C551.6,133.6,518,100,476.6,100L476.6,100z"/>
	<path fill="#FFFFFF" d="M439.1,587.5h-75V625h-37.5c-41.4,0-75,33.6-75,75h300c0-20.7-8.4-39.4-22-53c-13.6-13.6-32.3-22-53-22
		h-37.5V587.5L439.1,587.5z"/>
</g>
<g id="stroke">
	<rect x="395.7" y="69.3" transform="matrix(-0.7071 -0.7071 0.7071 -0.7071 416.7709 1000.6386)" width="39.7" height="689.4"/>
	
		<rect x="333.7" y="27.2" transform="matrix(-0.7071 -0.7071 0.7071 -0.7071 374.5721 898.9445)" fill="#FFFFFF" width="79.6" height="689.4"/>
</g>
</svg>
