<?xml version="1.0" encoding="utf-8"?>
<!-- Generator: Adobe Illustrator 18.0.0, SVG Export Plug-In . SVG Version: 6.00 Build 0)  -->
<svg version="1.1" xmlns="http://www.w3.org/2000/svg" xmlns:xlink="http://www.w3.org/1999/xlink" x="0px" y="0px"
	 viewBox="0 0 1200 1200" enable-background="new 0 0 1200 1200" xml:space="preserve">
<g id="grid" display="none">
	<g id="tilt_x5F_down" display="inline">
	</g>
	<g id="tilt_x5F_up" display="inline">
	</g>
	<g id="vertical" display="inline">
	</g>
	<g id="horizontal" display="inline">
	</g>
</g>
<g id="Ebene_6">
	<path id="background" d="M1050,1150H150c-55,0-100-45-100-100V150C50,95,95,50,150,50h900c55,0,100,45,100,100v900
		C1150,1105,1105,1150,1050,1150z"/>
	<path fill="#FFFFFF" d="M1000,400v300c0,55.2-44.8,100-100,100H753.5c-33.4,0-64.7,16.7-83.2,44.5l-49.5,74.3
		c-9.9,14.8-31.7,14.8-41.6,0l-49.5-74.3c-18.5-27.8-49.8-44.5-83.2-44.5H300c-55.2,0-100-44.8-100-100V400c0-55.2,44.8-100,100-100
		h600C955.2,300,1000,344.8,1000,400z"/>
</g>
<g id="stroke" display="none">
	
		<rect x="592.2" y="159.1" transform="matrix(0.7071 0.7071 -0.7071 0.7071 618.75 -256.2946)" display="inline" width="53" height="919.2"/>
	
		<rect x="509.5" y="102.9" transform="matrix(0.7071 0.7071 -0.7071 0.7071 562.5 -232.9951)" display="inline" fill="#FF9696" width="106.1" height="919.2"/>
</g>
</svg>
