<?xml version="1.0" encoding="utf-8"?>
<!-- Generator: Adobe Illustrator 18.0.0, SVG Export Plug-In . SVG Version: 6.00 Build 0)  -->
<svg version="1.1" id="speaker" xmlns="http://www.w3.org/2000/svg" xmlns:xlink="http://www.w3.org/1999/xlink" x="0px" y="0px"
	 viewBox="0 0 800 800" enable-background="new 0 0 800 800" xml:space="preserve">
<path id="speaker_1_" fill="#4A4F65" d="M404,40.9c-8.6,0-16.5,3-22.7,8.1L200,200H72c-39.8,0-72,32.2-72,72v257
	c0,35.8,26.1,65.4,60.3,71H200l180.7,150.6l0,0c6.3,5.4,14.4,8.5,23.3,8.5c19.9,0,36-16.1,36-36V76.8C440,57,423.9,40.9,404,40.9z"
	/>
<path id="_x29__1_" fill="#4A4F65" d="M626,400c0-69.8-38.2-130.6-94.8-162.6c-11.9-6.7-27-2.7-33.9,9.2c-6.9,11.9-3,27.2,9,34.2
	c41.6,23.4,69.8,67.9,69.8,119.2c0,0,0,0,0,0.1l0,0c0,51.1-28.2,95.5-69.8,118.8c-11.9,6.9-15.9,22.2-9,34.1s22,15.9,33.9,9.2
	C587.8,530.2,626,469.6,626,400L626,400L626,400z"/>
<path id="_x29_" fill="#4A4F65" d="M751,400L751,400C750.9,400,750.9,400,751,400c-0.1-97.6-44.9-184.7-115.1-241.7
	c-10.8-8.4-26.4-6.6-34.9,4.2c-8.6,10.8-6.8,26.5,4,35.1l-0.5-0.4c58.9,47.9,96.5,120.9,96.5,202.7h0.1
	c0,81.8-37.7,154.9-96.7,202.7l0.5-0.4c-10.8,8.6-12.6,24.3-4,35.1c8.5,10.7,24.2,12.6,35,4.2C706,584.7,751,497.6,751,400
	C751,400,751,400,751,400z"/>
</svg>
